%TF.GenerationSoftware,KiCad,Pcbnew,10.0.6*%
%TF.CreationDate,2026-10-07T12:30:51+02:00*%
%TF.ProjectId,Starbie,53746172-6269-4652-9e6b-696361645f70,rev?*%
%TF.SameCoordinates,Original*%
%TF.FileFunction,Soldermask,Top*%
%TF.FilePolarity,Negative*%
%FSLAX46Y46*%
G04 Gerber Fmt 4.6, Leading zero omitted, Abs format (unit mm)*
G04 Created by KiCad (PCBNEW 10.0.6) date 2026-10-07 12:30:51*
%MOMM*%
%LPD*%
G01*
G04 APERTURE LIST*
G04 Aperture macros list*
%AMRoundRect*
0 Rectangle with rounded corners*
0 $1 Rounding radius*
0 $2 $3 $4 $5 $6 $7 $8 $9 X,Y pos of 4 corners*
0 Add a 4 corners polygon primitive as box body*
4,1,4,$2,$3,$4,$5,$6,$7,$8,$9,$2,$3,0*
0 Add four circle primitives for the rounded corners*
1,1,$1+$1,$2,$3*
1,1,$1+$1,$4,$5*
1,1,$1+$1,$6,$7*
1,1,$1+$1,$8,$9*
0 Add four rect primitives between the rounded corners*
20,1,$1+$1,$2,$3,$4,$5,0*
20,1,$1+$1,$4,$5,$6,$7,0*
20,1,$1+$1,$6,$7,$8,$9,0*
20,1,$1+$1,$8,$9,$2,$3,0*%
G04 Aperture macros list end*
%ADD10RoundRect,0.152400X1.063600X0.609600X-1.063600X0.609600X-1.063600X-0.609600X1.063600X-0.609600X0*%
%ADD11C,1.524000*%
%ADD12RoundRect,0.152400X-1.063600X-0.609600X1.063600X-0.609600X1.063600X0.609600X-1.063600X0.609600X0*%
%ADD13O,3.800000X2.900000*%
%ADD14R,1.700000X1.700000*%
%ADD15O,1.700000X1.700000*%
%ADD16C,2.200000*%
%ADD17C,1.700000*%
%ADD18C,4.000000*%
%ADD19C,1.400000*%
%ADD20C,1.500000*%
%ADD21R,1.500000X1.500000*%
G04 APERTURE END LIST*
D10*
%TO.C,U1*%
X124045000Y-33300000D03*
D11*
X124880000Y-33300000D03*
D10*
X124045000Y-35840000D03*
D11*
X124880000Y-35840000D03*
D10*
X124045000Y-38380000D03*
D11*
X124880000Y-38380000D03*
D10*
X124045000Y-40920000D03*
D11*
X124880000Y-40920000D03*
D10*
X124045000Y-43460000D03*
D11*
X124880000Y-43460000D03*
D10*
X124045000Y-46000000D03*
D11*
X124880000Y-46000000D03*
D10*
X124045000Y-48540000D03*
D11*
X124880000Y-48540000D03*
X140120000Y-48540000D03*
D12*
X140955000Y-48540000D03*
D11*
X140120000Y-46000000D03*
D12*
X140955000Y-46000000D03*
D11*
X140120000Y-43460000D03*
D12*
X140955000Y-43460000D03*
D11*
X140120000Y-40920000D03*
D12*
X140955000Y-40920000D03*
D11*
X140120000Y-38380000D03*
D12*
X140955000Y-38380000D03*
D11*
X140120000Y-35840000D03*
D12*
X140955000Y-35840000D03*
D11*
X140120000Y-33300000D03*
D12*
X140955000Y-33300000D03*
%TD*%
D13*
%TO.C,J1*%
X90824000Y-35627000D03*
X90824000Y-58741000D03*
X113176000Y-35627000D03*
X113176000Y-58741000D03*
D14*
X98190000Y-34992000D03*
D15*
X100730000Y-34992000D03*
X103270000Y-34992000D03*
X105810000Y-34992000D03*
%TD*%
D16*
%TO.C,SW2*%
X141760000Y-71840000D03*
X148110000Y-69300000D03*
D17*
X150650000Y-74380000D03*
D18*
X145570000Y-74380000D03*
D17*
X140490000Y-74380000D03*
%TD*%
D19*
%TO.C,R1*%
X148620000Y-87500000D03*
X141000000Y-87500000D03*
%TD*%
D16*
%TO.C,SW1*%
X95690000Y-71960000D03*
X102040000Y-69420000D03*
D17*
X104580000Y-74500000D03*
D18*
X99500000Y-74500000D03*
D17*
X94420000Y-74500000D03*
%TD*%
%TO.C,J2*%
X114500000Y-84390000D03*
X114500000Y-81850000D03*
X114500000Y-79310000D03*
X114500000Y-76770000D03*
X114500000Y-74230000D03*
X114500000Y-71690000D03*
X114500000Y-69150000D03*
D14*
X114500000Y-66610000D03*
%TD*%
D20*
%TO.C,U2*%
X126407500Y-95902500D03*
X123867500Y-95902500D03*
X121327500Y-95902500D03*
D21*
X118787500Y-95902500D03*
%TD*%
M02*
