%TF.GenerationSoftware,KiCad,Pcbnew,10.0.6*%
%TF.CreationDate,2026-10-07T12:30:51+02:00*%
%TF.ProjectId,Starbie,53746172-6269-4652-9e6b-696361645f70,rev?*%
%TF.SameCoordinates,Original*%
%TF.FileFunction,Copper,L1,Top*%
%TF.FilePolarity,Positive*%
%FSLAX46Y46*%
G04 Gerber Fmt 4.6, Leading zero omitted, Abs format (unit mm)*
G04 Created by KiCad (PCBNEW 10.0.6) date 2026-10-07 12:30:51*
%MOMM*%
%LPD*%
G01*
G04 APERTURE LIST*
G04 Aperture macros list*
%AMRoundRect*
0 Rectangle with rounded corners*
0 $1 Rounding radius*
0 $2 $3 $4 $5 $6 $7 $8 $9 X,Y pos of 4 corners*
0 Add a 4 corners polygon primitive as box body*
4,1,4,$2,$3,$4,$5,$6,$7,$8,$9,$2,$3,0*
0 Add four circle primitives for the rounded corners*
1,1,$1+$1,$2,$3*
1,1,$1+$1,$4,$5*
1,1,$1+$1,$6,$7*
1,1,$1+$1,$8,$9*
0 Add four rect primitives between the rounded corners*
20,1,$1+$1,$2,$3,$4,$5,0*
20,1,$1+$1,$4,$5,$6,$7,0*
20,1,$1+$1,$6,$7,$8,$9,0*
20,1,$1+$1,$8,$9,$2,$3,0*%
G04 Aperture macros list end*
%TA.AperFunction,SMDPad,CuDef*%
%ADD10RoundRect,0.152400X1.063600X0.609600X-1.063600X0.609600X-1.063600X-0.609600X1.063600X-0.609600X0*%
%TD*%
%TA.AperFunction,ComponentPad*%
%ADD11C,1.524000*%
%TD*%
%TA.AperFunction,SMDPad,CuDef*%
%ADD12RoundRect,0.152400X-1.063600X-0.609600X1.063600X-0.609600X1.063600X0.609600X-1.063600X0.609600X0*%
%TD*%
%TA.AperFunction,ComponentPad*%
%ADD13R,1.700000X1.700000*%
%TD*%
%TA.AperFunction,ComponentPad*%
%ADD14O,1.700000X1.700000*%
%TD*%
%TA.AperFunction,ComponentPad*%
%ADD15C,2.200000*%
%TD*%
%TA.AperFunction,ComponentPad*%
%ADD16C,1.400000*%
%TD*%
%TA.AperFunction,ComponentPad*%
%ADD17C,1.700000*%
%TD*%
%TA.AperFunction,ComponentPad*%
%ADD18C,1.500000*%
%TD*%
%TA.AperFunction,ComponentPad*%
%ADD19R,1.500000X1.500000*%
%TD*%
%TA.AperFunction,ViaPad*%
%ADD20C,0.600000*%
%TD*%
%TA.AperFunction,Conductor*%
%ADD21C,0.250000*%
%TD*%
G04 APERTURE END LIST*
D10*
%TO.P,U1,1,D0_1*%
%TO.N,unconnected-(U1-D0-Pad1)_1*%
X124045000Y-33300000D03*
D11*
%TO.N,unconnected-(U1-D0-Pad1)*%
X124880000Y-33300000D03*
D10*
%TO.P,U1,2,D1_2*%
%TO.N,/DHT11 DATA*%
X124045000Y-35840000D03*
D11*
X124880000Y-35840000D03*
D10*
%TO.P,U1,3,D2_3*%
%TO.N,/GPIO2*%
X124045000Y-38380000D03*
D11*
X124880000Y-38380000D03*
D10*
%TO.P,U1,4,D3_4*%
%TO.N,/GPIO3*%
X124045000Y-40920000D03*
D11*
X124880000Y-40920000D03*
D10*
%TO.P,U1,5,D4_5*%
%TO.N,/SCL*%
X124045000Y-43460000D03*
D11*
X124880000Y-43460000D03*
D10*
%TO.P,U1,6,D5_6*%
%TO.N,/SDA*%
X124045000Y-46000000D03*
D11*
X124880000Y-46000000D03*
D10*
%TO.P,U1,7,D6_7*%
%TO.N,unconnected-(U1-D6-Pad7)*%
X124045000Y-48540000D03*
D11*
%TO.N,unconnected-(U1-D6-Pad7)_1*%
X124880000Y-48540000D03*
%TO.P,U1,8,D7_8*%
%TO.N,unconnected-(U1-D7-Pad8)_1*%
X140120000Y-48540000D03*
D12*
%TO.N,unconnected-(U1-D7-Pad8)*%
X140955000Y-48540000D03*
D11*
%TO.P,U1,9,D8_9*%
%TO.N,unconnected-(U1-D8-Pad9)_1*%
X140120000Y-46000000D03*
D12*
%TO.N,unconnected-(U1-D8-Pad9)*%
X140955000Y-46000000D03*
D11*
%TO.P,U1,10,D9/BOOT_10*%
%TO.N,unconnected-(U1-D9{slash}BOOT-Pad10)*%
X140120000Y-43460000D03*
D12*
%TO.N,unconnected-(U1-D9{slash}BOOT-Pad10)_1*%
X140955000Y-43460000D03*
D11*
%TO.P,U1,11,D10_11*%
%TO.N,unconnected-(U1-D10-Pad11)*%
X140120000Y-40920000D03*
D12*
%TO.N,unconnected-(U1-D10-Pad11)_1*%
X140955000Y-40920000D03*
D11*
%TO.P,U1,12,3V3_OUT_12*%
%TO.N,+3.3V*%
X140120000Y-38380000D03*
D12*
X140955000Y-38380000D03*
D11*
%TO.P,U1,13,GND_13*%
%TO.N,GND*%
X140120000Y-35840000D03*
D12*
X140955000Y-35840000D03*
D11*
%TO.P,U1,14,VBUS_14*%
%TO.N,+5V*%
X140120000Y-33300000D03*
D12*
X140955000Y-33300000D03*
%TD*%
D13*
%TO.P,J1,1,Pin_1_1*%
%TO.N,/SDA*%
X98190000Y-34992000D03*
D14*
%TO.P,J1,2,Pin_2_2*%
%TO.N,/SCL*%
X100730000Y-34992000D03*
%TO.P,J1,3,Pin_3_3*%
%TO.N,+3.3V*%
X103270000Y-34992000D03*
%TO.P,J1,4,Pin_4_4*%
%TO.N,GND*%
X105810000Y-34992000D03*
%TD*%
D15*
%TO.P,SW2,2,2_2*%
%TO.N,GND*%
X141760000Y-71840000D03*
%TO.P,SW2,1,1_1*%
%TO.N,/GPIO3*%
X148110000Y-69300000D03*
%TD*%
D16*
%TO.P,R1,2*%
%TO.N,/DHT11 DATA*%
X148620000Y-87500000D03*
%TO.P,R1,1*%
%TO.N,+3.3V*%
X141000000Y-87500000D03*
%TD*%
D15*
%TO.P,SW1,2,2_2*%
%TO.N,GND*%
X95690000Y-71960000D03*
%TO.P,SW1,1,1_1*%
%TO.N,/GPIO2*%
X102040000Y-69420000D03*
%TD*%
D17*
%TO.P,J2,8,Pin_8_8*%
%TO.N,unconnected-(J2-Pin_8-Pad8)*%
X114500000Y-84390000D03*
%TO.P,J2,7,Pin_7_7*%
%TO.N,unconnected-(J2-Pin_7-Pad7)*%
X114500000Y-81850000D03*
%TO.P,J2,6,Pin_6_6*%
%TO.N,unconnected-(J2-Pin_6-Pad6)*%
X114500000Y-79310000D03*
%TO.P,J2,5,Pin_5_5*%
%TO.N,unconnected-(J2-Pin_5-Pad5)*%
X114500000Y-76770000D03*
%TO.P,J2,4,Pin_4_4*%
%TO.N,/SDA*%
X114500000Y-74230000D03*
%TO.P,J2,3,Pin_3_3*%
%TO.N,/SCL*%
X114500000Y-71690000D03*
%TO.P,J2,2,Pin_2_2*%
%TO.N,GND*%
X114500000Y-69150000D03*
D13*
%TO.P,J2,1,Pin_1_1*%
%TO.N,+3.3V*%
X114500000Y-66610000D03*
%TD*%
D18*
%TO.P,U2,4,GND_4*%
%TO.N,GND*%
X126407500Y-95902500D03*
%TO.P,U2,3,NC_3*%
%TO.N,unconnected-(U2-NC-Pad3)*%
X123867500Y-95902500D03*
%TO.P,U2,2,DATA_2*%
%TO.N,/DHT11 DATA*%
X121327500Y-95902500D03*
D19*
%TO.P,U2,1,VDD_1*%
%TO.N,+3.3V*%
X118787500Y-95902500D03*
%TD*%
D20*
%TO.N,+3.3V*%
X103407058Y-41092942D03*
%TO.N,GND*%
X107500000Y-37500000D03*
X108500000Y-46500000D03*
%TO.N,/SCL*%
X100407058Y-38092942D03*
X114050486Y-70483398D03*
X112000000Y-68000000D03*
%TO.N,/SDA*%
X110500000Y-68500000D03*
X113016942Y-71516942D03*
%TD*%
%TO.N,+3.3V*%
D21*
X103407058Y-55517058D02*
X103407058Y-41092942D01*
X114500000Y-66610000D02*
X103407058Y-55517058D01*
%TO.N,GND*%
X115675000Y-64624493D02*
X108500000Y-57449493D01*
X114500000Y-69150000D02*
X115675000Y-67975000D01*
X108500000Y-57449493D02*
X108500000Y-46500000D01*
X115675000Y-67975000D02*
X115675000Y-64624493D01*
X107000000Y-36182000D02*
X105810000Y-34992000D01*
X107500000Y-37500000D02*
X107000000Y-37000000D01*
X107000000Y-37000000D02*
X107000000Y-36182000D01*
%TO.N,/SCL*%
X100407058Y-56407058D02*
X100407058Y-38092942D01*
X114500000Y-71690000D02*
X114500000Y-70932912D01*
X114500000Y-70932912D02*
X114050486Y-70483398D01*
X112000000Y-68000000D02*
X100407058Y-56407058D01*
%TO.N,/SDA*%
X114500000Y-74230000D02*
X113016942Y-72746942D01*
X113016942Y-72746942D02*
X113016942Y-71516942D01*
X110500000Y-68500000D02*
X98190000Y-56190000D01*
X98190000Y-56190000D02*
X98190000Y-34992000D01*
%TO.N,+3.3V*%
X114500000Y-66610000D02*
X109740255Y-71369745D01*
X109740255Y-71369745D02*
X97115000Y-71369745D01*
X97115000Y-71369745D02*
X96280255Y-70535000D01*
X96280255Y-70535000D02*
X95099745Y-70535000D01*
X95099745Y-70535000D02*
X94265000Y-71369745D01*
X94265000Y-71369745D02*
X94265000Y-72550255D01*
X94265000Y-72550255D02*
X97125000Y-75410255D01*
X97125000Y-75410255D02*
X97125000Y-75483757D01*
X109141243Y-87500000D02*
X127190000Y-87500000D01*
X97125000Y-75483757D02*
X109141243Y-87500000D01*
%TO.N,GND*%
X141760000Y-71840000D02*
X117190000Y-71840000D01*
X117190000Y-71840000D02*
X114500000Y-69150000D01*
%TO.N,/GPIO2*%
X124880000Y-38380000D02*
X107346299Y-38380000D01*
X97015000Y-64395000D02*
X102040000Y-69420000D01*
X107346299Y-38380000D02*
X104445000Y-35478701D01*
X104445000Y-34445000D02*
X103817000Y-33817000D01*
X104445000Y-35478701D02*
X104445000Y-34445000D01*
X103817000Y-33817000D02*
X97015000Y-33817000D01*
X97015000Y-33817000D02*
X97015000Y-64395000D01*
%TO.N,/DHT11 DATA*%
X148620000Y-87500000D02*
X148620000Y-73120000D01*
X148620000Y-73120000D02*
X149535000Y-72205000D01*
X149535000Y-72205000D02*
X149535000Y-44607432D01*
X125967000Y-36927000D02*
X124880000Y-35840000D01*
X149535000Y-44607432D02*
X141854568Y-36927000D01*
X141854568Y-36927000D02*
X125967000Y-36927000D01*
%TO.N,/GPIO3*%
X148110000Y-69300000D02*
X148110000Y-64150000D01*
X148110000Y-64150000D02*
X124880000Y-40920000D01*
%TO.N,/SDA*%
X98190000Y-34992000D02*
X109198000Y-46000000D01*
X109198000Y-46000000D02*
X124880000Y-46000000D01*
%TO.N,/SCL*%
X100730000Y-34992000D02*
X109198000Y-43460000D01*
X109198000Y-43460000D02*
X124880000Y-43460000D01*
%TO.N,+3.3V*%
X103270000Y-34992000D02*
X107745000Y-39467000D01*
X107745000Y-39467000D02*
X139033000Y-39467000D01*
X139033000Y-39467000D02*
X140120000Y-38380000D01*
%TO.N,GND*%
X105810000Y-34992000D02*
X107250000Y-33552000D01*
X107250000Y-33552000D02*
X121578432Y-33552000D01*
X139033000Y-34753000D02*
X140120000Y-35840000D01*
X121578432Y-33552000D02*
X122779432Y-34753000D01*
X122779432Y-34753000D02*
X139033000Y-34753000D01*
X95690000Y-71960000D02*
X111690000Y-71960000D01*
X111690000Y-71960000D02*
X114500000Y-69150000D01*
X126407500Y-95902500D02*
X134047069Y-95902500D01*
X134047069Y-95902500D02*
X142025000Y-87924569D01*
X142025000Y-72105000D02*
X141760000Y-71840000D01*
X142025000Y-87924569D02*
X142025000Y-72105000D01*
%TO.N,/DHT11 DATA*%
X121327500Y-95902500D02*
X123425000Y-98000000D01*
X123425000Y-98000000D02*
X138120000Y-98000000D01*
X138120000Y-98000000D02*
X148620000Y-87500000D01*
%TO.N,+3.3V*%
X118787500Y-95902500D02*
X127190000Y-87500000D01*
X127190000Y-87500000D02*
X141000000Y-87500000D01*
%TD*%
M02*
