%TF.GenerationSoftware,KiCad,Pcbnew,10.0.6*%
%TF.CreationDate,2026-10-07T12:30:51+02:00*%
%TF.ProjectId,Starbie,53746172-6269-4652-9e6b-696361645f70,rev?*%
%TF.SameCoordinates,Original*%
%TF.FileFunction,Copper,L2,Bot*%
%TF.FilePolarity,Positive*%
%FSLAX46Y46*%
G04 Gerber Fmt 4.6, Leading zero omitted, Abs format (unit mm)*
G04 Created by KiCad (PCBNEW 10.0.6) date 2026-10-07 12:30:51*
%MOMM*%
%LPD*%
G01*
G04 APERTURE LIST*
%TA.AperFunction,ComponentPad*%
%ADD10C,1.524000*%
%TD*%
%TA.AperFunction,ComponentPad*%
%ADD11R,1.700000X1.700000*%
%TD*%
%TA.AperFunction,ComponentPad*%
%ADD12O,1.700000X1.700000*%
%TD*%
%TA.AperFunction,ComponentPad*%
%ADD13C,2.200000*%
%TD*%
%TA.AperFunction,ComponentPad*%
%ADD14C,1.400000*%
%TD*%
%TA.AperFunction,ComponentPad*%
%ADD15C,1.700000*%
%TD*%
%TA.AperFunction,ComponentPad*%
%ADD16C,1.500000*%
%TD*%
%TA.AperFunction,ComponentPad*%
%ADD17R,1.500000X1.500000*%
%TD*%
%TA.AperFunction,ViaPad*%
%ADD18C,0.600000*%
%TD*%
%TA.AperFunction,Conductor*%
%ADD19C,0.250000*%
%TD*%
G04 APERTURE END LIST*
D10*
%TO.P,U1,1,D0_1*%
%TO.N,unconnected-(U1-D0-Pad1)*%
X124880000Y-33300000D03*
%TO.P,U1,2,D1_2*%
%TO.N,/DHT11 DATA*%
X124880000Y-35840000D03*
%TO.P,U1,3,D2_3*%
%TO.N,/GPIO2*%
X124880000Y-38380000D03*
%TO.P,U1,4,D3_4*%
%TO.N,/GPIO3*%
X124880000Y-40920000D03*
%TO.P,U1,5,D4_5*%
%TO.N,/SCL*%
X124880000Y-43460000D03*
%TO.P,U1,6,D5_6*%
%TO.N,/SDA*%
X124880000Y-46000000D03*
%TO.P,U1,7,D6_7*%
%TO.N,unconnected-(U1-D6-Pad7)_1*%
X124880000Y-48540000D03*
%TO.P,U1,8,D7_8*%
%TO.N,unconnected-(U1-D7-Pad8)_1*%
X140120000Y-48540000D03*
%TO.P,U1,9,D8_9*%
%TO.N,unconnected-(U1-D8-Pad9)_1*%
X140120000Y-46000000D03*
%TO.P,U1,10,D9/BOOT_10*%
%TO.N,unconnected-(U1-D9{slash}BOOT-Pad10)*%
X140120000Y-43460000D03*
%TO.P,U1,11,D10_11*%
%TO.N,unconnected-(U1-D10-Pad11)*%
X140120000Y-40920000D03*
%TO.P,U1,12,3V3_OUT_12*%
%TO.N,+3.3V*%
X140120000Y-38380000D03*
%TO.P,U1,13,GND_13*%
%TO.N,GND*%
X140120000Y-35840000D03*
%TO.P,U1,14,VBUS_14*%
%TO.N,+5V*%
X140120000Y-33300000D03*
%TD*%
D11*
%TO.P,J1,1,Pin_1_1*%
%TO.N,/SDA*%
X98190000Y-34992000D03*
D12*
%TO.P,J1,2,Pin_2_2*%
%TO.N,/SCL*%
X100730000Y-34992000D03*
%TO.P,J1,3,Pin_3_3*%
%TO.N,+3.3V*%
X103270000Y-34992000D03*
%TO.P,J1,4,Pin_4_4*%
%TO.N,GND*%
X105810000Y-34992000D03*
%TD*%
D13*
%TO.P,SW2,2,2_2*%
%TO.N,GND*%
X141760000Y-71840000D03*
%TO.P,SW2,1,1_1*%
%TO.N,/GPIO3*%
X148110000Y-69300000D03*
%TD*%
D14*
%TO.P,R1,2*%
%TO.N,/DHT11 DATA*%
X148620000Y-87500000D03*
%TO.P,R1,1*%
%TO.N,+3.3V*%
X141000000Y-87500000D03*
%TD*%
D13*
%TO.P,SW1,2,2_2*%
%TO.N,GND*%
X95690000Y-71960000D03*
%TO.P,SW1,1,1_1*%
%TO.N,/GPIO2*%
X102040000Y-69420000D03*
%TD*%
D15*
%TO.P,J2,8,Pin_8_8*%
%TO.N,unconnected-(J2-Pin_8-Pad8)*%
X114500000Y-84390000D03*
%TO.P,J2,7,Pin_7_7*%
%TO.N,unconnected-(J2-Pin_7-Pad7)*%
X114500000Y-81850000D03*
%TO.P,J2,6,Pin_6_6*%
%TO.N,unconnected-(J2-Pin_6-Pad6)*%
X114500000Y-79310000D03*
%TO.P,J2,5,Pin_5_5*%
%TO.N,unconnected-(J2-Pin_5-Pad5)*%
X114500000Y-76770000D03*
%TO.P,J2,4,Pin_4_4*%
%TO.N,/SDA*%
X114500000Y-74230000D03*
%TO.P,J2,3,Pin_3_3*%
%TO.N,/SCL*%
X114500000Y-71690000D03*
%TO.P,J2,2,Pin_2_2*%
%TO.N,GND*%
X114500000Y-69150000D03*
D11*
%TO.P,J2,1,Pin_1_1*%
%TO.N,+3.3V*%
X114500000Y-66610000D03*
%TD*%
D16*
%TO.P,U2,4,GND_4*%
%TO.N,GND*%
X126407500Y-95902500D03*
%TO.P,U2,3,NC_3*%
%TO.N,unconnected-(U2-NC-Pad3)*%
X123867500Y-95902500D03*
%TO.P,U2,2,DATA_2*%
%TO.N,/DHT11 DATA*%
X121327500Y-95902500D03*
D17*
%TO.P,U2,1,VDD_1*%
%TO.N,+3.3V*%
X118787500Y-95902500D03*
%TD*%
D18*
%TO.N,+3.3V*%
X103407058Y-41092942D03*
%TO.N,GND*%
X107500000Y-37500000D03*
X108500000Y-46500000D03*
%TO.N,/SCL*%
X100407058Y-38092942D03*
X114050486Y-70483398D03*
X112000000Y-68000000D03*
%TO.N,/SDA*%
X110500000Y-68500000D03*
X113016942Y-71516942D03*
%TD*%
%TO.N,+3.3V*%
D19*
X103407058Y-41092942D02*
X103270000Y-40955884D01*
X103270000Y-40955884D02*
X103270000Y-34992000D01*
%TO.N,GND*%
X108500000Y-38500000D02*
X107500000Y-37500000D01*
X108500000Y-46500000D02*
X108500000Y-38500000D01*
%TO.N,/SCL*%
X114050486Y-70483398D02*
X112000000Y-68432912D01*
X112000000Y-68432912D02*
X112000000Y-68000000D01*
X100407058Y-38092942D02*
X100407058Y-37592942D01*
X100407058Y-37592942D02*
X100730000Y-37270000D01*
X100730000Y-37270000D02*
X100730000Y-34992000D01*
%TO.N,/SDA*%
X113016942Y-71516942D02*
X113016942Y-71016942D01*
X113016942Y-71016942D02*
X110500000Y-68500000D01*
%TD*%
M02*
