%TF.GenerationSoftware,KiCad,Pcbnew,10.0.6*%
%TF.CreationDate,2026-10-07T12:30:51+02:00*%
%TF.ProjectId,Starbie,53746172-6269-4652-9e6b-696361645f70,rev?*%
%TF.SameCoordinates,Original*%
%TF.FileFunction,Legend,Top*%
%TF.FilePolarity,Positive*%
%FSLAX46Y46*%
G04 Gerber Fmt 4.6, Leading zero omitted, Abs format (unit mm)*
G04 Created by KiCad (PCBNEW 10.0.6) date 2026-10-07 12:30:51*
%MOMM*%
%LPD*%
G01*
G04 APERTURE LIST*
%ADD10C,0.101600*%
%ADD11C,0.150000*%
%ADD12C,0.000000*%
%ADD13C,0.127000*%
%ADD14C,0.100000*%
%ADD15C,0.504000*%
%ADD16C,0.120000*%
G04 APERTURE END LIST*
D10*
X121814811Y-41528809D02*
X122462430Y-41528809D01*
X122462430Y-41528809D02*
X122538620Y-41498571D01*
X122538620Y-41498571D02*
X122576716Y-41468333D01*
X122576716Y-41468333D02*
X122614811Y-41407857D01*
X122614811Y-41407857D02*
X122614811Y-41286904D01*
X122614811Y-41286904D02*
X122576716Y-41226428D01*
X122576716Y-41226428D02*
X122538620Y-41196190D01*
X122538620Y-41196190D02*
X122462430Y-41165952D01*
X122462430Y-41165952D02*
X121814811Y-41165952D01*
X122614811Y-40530952D02*
X122614811Y-40893809D01*
X122614811Y-40712381D02*
X121814811Y-40712381D01*
X121814811Y-40712381D02*
X121929096Y-40772857D01*
X121929096Y-40772857D02*
X122005287Y-40833333D01*
X122005287Y-40833333D02*
X122043382Y-40893809D01*
D11*
X101438066Y-45318019D02*
X101438066Y-46032304D01*
X101438066Y-46032304D02*
X101390447Y-46175161D01*
X101390447Y-46175161D02*
X101295209Y-46270400D01*
X101295209Y-46270400D02*
X101152352Y-46318019D01*
X101152352Y-46318019D02*
X101057114Y-46318019D01*
X102438066Y-46318019D02*
X101866638Y-46318019D01*
X102152352Y-46318019D02*
X102152352Y-45318019D01*
X102152352Y-45318019D02*
X102057114Y-45460876D01*
X102057114Y-45460876D02*
X101961876Y-45556114D01*
X101961876Y-45556114D02*
X101866638Y-45603733D01*
X97340000Y-37558200D02*
X97440000Y-37605819D01*
X97440000Y-37605819D02*
X97606667Y-37605819D01*
X97606667Y-37605819D02*
X97673333Y-37558200D01*
X97673333Y-37558200D02*
X97706667Y-37510580D01*
X97706667Y-37510580D02*
X97740000Y-37415342D01*
X97740000Y-37415342D02*
X97740000Y-37320104D01*
X97740000Y-37320104D02*
X97706667Y-37224866D01*
X97706667Y-37224866D02*
X97673333Y-37177247D01*
X97673333Y-37177247D02*
X97606667Y-37129628D01*
X97606667Y-37129628D02*
X97473333Y-37082009D01*
X97473333Y-37082009D02*
X97406667Y-37034390D01*
X97406667Y-37034390D02*
X97373333Y-36986771D01*
X97373333Y-36986771D02*
X97340000Y-36891533D01*
X97340000Y-36891533D02*
X97340000Y-36796295D01*
X97340000Y-36796295D02*
X97373333Y-36701057D01*
X97373333Y-36701057D02*
X97406667Y-36653438D01*
X97406667Y-36653438D02*
X97473333Y-36605819D01*
X97473333Y-36605819D02*
X97640000Y-36605819D01*
X97640000Y-36605819D02*
X97740000Y-36653438D01*
X98040000Y-37605819D02*
X98040000Y-36605819D01*
X98040000Y-36605819D02*
X98206667Y-36605819D01*
X98206667Y-36605819D02*
X98306667Y-36653438D01*
X98306667Y-36653438D02*
X98373334Y-36748676D01*
X98373334Y-36748676D02*
X98406667Y-36843914D01*
X98406667Y-36843914D02*
X98440000Y-37034390D01*
X98440000Y-37034390D02*
X98440000Y-37177247D01*
X98440000Y-37177247D02*
X98406667Y-37367723D01*
X98406667Y-37367723D02*
X98373334Y-37462961D01*
X98373334Y-37462961D02*
X98306667Y-37558200D01*
X98306667Y-37558200D02*
X98206667Y-37605819D01*
X98206667Y-37605819D02*
X98040000Y-37605819D01*
X98706667Y-37320104D02*
X99040000Y-37320104D01*
X98640000Y-37605819D02*
X98873334Y-36605819D01*
X98873334Y-36605819D02*
X99106667Y-37605819D01*
X99896666Y-37558200D02*
X99996666Y-37605819D01*
X99996666Y-37605819D02*
X100163333Y-37605819D01*
X100163333Y-37605819D02*
X100229999Y-37558200D01*
X100229999Y-37558200D02*
X100263333Y-37510580D01*
X100263333Y-37510580D02*
X100296666Y-37415342D01*
X100296666Y-37415342D02*
X100296666Y-37320104D01*
X100296666Y-37320104D02*
X100263333Y-37224866D01*
X100263333Y-37224866D02*
X100229999Y-37177247D01*
X100229999Y-37177247D02*
X100163333Y-37129628D01*
X100163333Y-37129628D02*
X100029999Y-37082009D01*
X100029999Y-37082009D02*
X99963333Y-37034390D01*
X99963333Y-37034390D02*
X99929999Y-36986771D01*
X99929999Y-36986771D02*
X99896666Y-36891533D01*
X99896666Y-36891533D02*
X99896666Y-36796295D01*
X99896666Y-36796295D02*
X99929999Y-36701057D01*
X99929999Y-36701057D02*
X99963333Y-36653438D01*
X99963333Y-36653438D02*
X100029999Y-36605819D01*
X100029999Y-36605819D02*
X100196666Y-36605819D01*
X100196666Y-36605819D02*
X100296666Y-36653438D01*
X100996666Y-37510580D02*
X100963333Y-37558200D01*
X100963333Y-37558200D02*
X100863333Y-37605819D01*
X100863333Y-37605819D02*
X100796666Y-37605819D01*
X100796666Y-37605819D02*
X100696666Y-37558200D01*
X100696666Y-37558200D02*
X100630000Y-37462961D01*
X100630000Y-37462961D02*
X100596666Y-37367723D01*
X100596666Y-37367723D02*
X100563333Y-37177247D01*
X100563333Y-37177247D02*
X100563333Y-37034390D01*
X100563333Y-37034390D02*
X100596666Y-36843914D01*
X100596666Y-36843914D02*
X100630000Y-36748676D01*
X100630000Y-36748676D02*
X100696666Y-36653438D01*
X100696666Y-36653438D02*
X100796666Y-36605819D01*
X100796666Y-36605819D02*
X100863333Y-36605819D01*
X100863333Y-36605819D02*
X100963333Y-36653438D01*
X100963333Y-36653438D02*
X100996666Y-36701057D01*
X101630000Y-37605819D02*
X101296666Y-37605819D01*
X101296666Y-37605819D02*
X101296666Y-36605819D01*
X102336666Y-36605819D02*
X102570000Y-37605819D01*
X102570000Y-37605819D02*
X102803333Y-36605819D01*
X103036666Y-37605819D02*
X103036666Y-36605819D01*
X103036666Y-36605819D02*
X103203333Y-36605819D01*
X103203333Y-36605819D02*
X103303333Y-36653438D01*
X103303333Y-36653438D02*
X103370000Y-36748676D01*
X103370000Y-36748676D02*
X103403333Y-36843914D01*
X103403333Y-36843914D02*
X103436666Y-37034390D01*
X103436666Y-37034390D02*
X103436666Y-37177247D01*
X103436666Y-37177247D02*
X103403333Y-37367723D01*
X103403333Y-37367723D02*
X103370000Y-37462961D01*
X103370000Y-37462961D02*
X103303333Y-37558200D01*
X103303333Y-37558200D02*
X103203333Y-37605819D01*
X103203333Y-37605819D02*
X103036666Y-37605819D01*
X103736666Y-37605819D02*
X103736666Y-36605819D01*
X103736666Y-36605819D02*
X103903333Y-36605819D01*
X103903333Y-36605819D02*
X104003333Y-36653438D01*
X104003333Y-36653438D02*
X104070000Y-36748676D01*
X104070000Y-36748676D02*
X104103333Y-36843914D01*
X104103333Y-36843914D02*
X104136666Y-37034390D01*
X104136666Y-37034390D02*
X104136666Y-37177247D01*
X104136666Y-37177247D02*
X104103333Y-37367723D01*
X104103333Y-37367723D02*
X104070000Y-37462961D01*
X104070000Y-37462961D02*
X104003333Y-37558200D01*
X104003333Y-37558200D02*
X103903333Y-37605819D01*
X103903333Y-37605819D02*
X103736666Y-37605819D01*
X105403667Y-36653438D02*
X105337000Y-36605819D01*
X105337000Y-36605819D02*
X105237000Y-36605819D01*
X105237000Y-36605819D02*
X105137000Y-36653438D01*
X105137000Y-36653438D02*
X105070334Y-36748676D01*
X105070334Y-36748676D02*
X105037000Y-36843914D01*
X105037000Y-36843914D02*
X105003667Y-37034390D01*
X105003667Y-37034390D02*
X105003667Y-37177247D01*
X105003667Y-37177247D02*
X105037000Y-37367723D01*
X105037000Y-37367723D02*
X105070334Y-37462961D01*
X105070334Y-37462961D02*
X105137000Y-37558200D01*
X105137000Y-37558200D02*
X105237000Y-37605819D01*
X105237000Y-37605819D02*
X105303667Y-37605819D01*
X105303667Y-37605819D02*
X105403667Y-37558200D01*
X105403667Y-37558200D02*
X105437000Y-37510580D01*
X105437000Y-37510580D02*
X105437000Y-37177247D01*
X105437000Y-37177247D02*
X105303667Y-37177247D01*
X105737000Y-37605819D02*
X105737000Y-36605819D01*
X105737000Y-36605819D02*
X106137000Y-37605819D01*
X106137000Y-37605819D02*
X106137000Y-36605819D01*
X106470333Y-37605819D02*
X106470333Y-36605819D01*
X106470333Y-36605819D02*
X106637000Y-36605819D01*
X106637000Y-36605819D02*
X106737000Y-36653438D01*
X106737000Y-36653438D02*
X106803667Y-36748676D01*
X106803667Y-36748676D02*
X106837000Y-36843914D01*
X106837000Y-36843914D02*
X106870333Y-37034390D01*
X106870333Y-37034390D02*
X106870333Y-37177247D01*
X106870333Y-37177247D02*
X106837000Y-37367723D01*
X106837000Y-37367723D02*
X106803667Y-37462961D01*
X106803667Y-37462961D02*
X106737000Y-37558200D01*
X106737000Y-37558200D02*
X106637000Y-37605819D01*
X106637000Y-37605819D02*
X106470333Y-37605819D01*
X144236667Y-66913200D02*
X144379524Y-66960819D01*
X144379524Y-66960819D02*
X144617619Y-66960819D01*
X144617619Y-66960819D02*
X144712857Y-66913200D01*
X144712857Y-66913200D02*
X144760476Y-66865580D01*
X144760476Y-66865580D02*
X144808095Y-66770342D01*
X144808095Y-66770342D02*
X144808095Y-66675104D01*
X144808095Y-66675104D02*
X144760476Y-66579866D01*
X144760476Y-66579866D02*
X144712857Y-66532247D01*
X144712857Y-66532247D02*
X144617619Y-66484628D01*
X144617619Y-66484628D02*
X144427143Y-66437009D01*
X144427143Y-66437009D02*
X144331905Y-66389390D01*
X144331905Y-66389390D02*
X144284286Y-66341771D01*
X144284286Y-66341771D02*
X144236667Y-66246533D01*
X144236667Y-66246533D02*
X144236667Y-66151295D01*
X144236667Y-66151295D02*
X144284286Y-66056057D01*
X144284286Y-66056057D02*
X144331905Y-66008438D01*
X144331905Y-66008438D02*
X144427143Y-65960819D01*
X144427143Y-65960819D02*
X144665238Y-65960819D01*
X144665238Y-65960819D02*
X144808095Y-66008438D01*
X145141429Y-65960819D02*
X145379524Y-66960819D01*
X145379524Y-66960819D02*
X145570000Y-66246533D01*
X145570000Y-66246533D02*
X145760476Y-66960819D01*
X145760476Y-66960819D02*
X145998572Y-65960819D01*
X146331905Y-66056057D02*
X146379524Y-66008438D01*
X146379524Y-66008438D02*
X146474762Y-65960819D01*
X146474762Y-65960819D02*
X146712857Y-65960819D01*
X146712857Y-65960819D02*
X146808095Y-66008438D01*
X146808095Y-66008438D02*
X146855714Y-66056057D01*
X146855714Y-66056057D02*
X146903333Y-66151295D01*
X146903333Y-66151295D02*
X146903333Y-66246533D01*
X146903333Y-66246533D02*
X146855714Y-66389390D01*
X146855714Y-66389390D02*
X146284286Y-66960819D01*
X146284286Y-66960819D02*
X146903333Y-66960819D01*
X144643333Y-86034819D02*
X144310000Y-85558628D01*
X144071905Y-86034819D02*
X144071905Y-85034819D01*
X144071905Y-85034819D02*
X144452857Y-85034819D01*
X144452857Y-85034819D02*
X144548095Y-85082438D01*
X144548095Y-85082438D02*
X144595714Y-85130057D01*
X144595714Y-85130057D02*
X144643333Y-85225295D01*
X144643333Y-85225295D02*
X144643333Y-85368152D01*
X144643333Y-85368152D02*
X144595714Y-85463390D01*
X144595714Y-85463390D02*
X144548095Y-85511009D01*
X144548095Y-85511009D02*
X144452857Y-85558628D01*
X144452857Y-85558628D02*
X144071905Y-85558628D01*
X145595714Y-86034819D02*
X145024286Y-86034819D01*
X145310000Y-86034819D02*
X145310000Y-85034819D01*
X145310000Y-85034819D02*
X145214762Y-85177676D01*
X145214762Y-85177676D02*
X145119524Y-85272914D01*
X145119524Y-85272914D02*
X145024286Y-85320533D01*
X98166667Y-67033200D02*
X98309524Y-67080819D01*
X98309524Y-67080819D02*
X98547619Y-67080819D01*
X98547619Y-67080819D02*
X98642857Y-67033200D01*
X98642857Y-67033200D02*
X98690476Y-66985580D01*
X98690476Y-66985580D02*
X98738095Y-66890342D01*
X98738095Y-66890342D02*
X98738095Y-66795104D01*
X98738095Y-66795104D02*
X98690476Y-66699866D01*
X98690476Y-66699866D02*
X98642857Y-66652247D01*
X98642857Y-66652247D02*
X98547619Y-66604628D01*
X98547619Y-66604628D02*
X98357143Y-66557009D01*
X98357143Y-66557009D02*
X98261905Y-66509390D01*
X98261905Y-66509390D02*
X98214286Y-66461771D01*
X98214286Y-66461771D02*
X98166667Y-66366533D01*
X98166667Y-66366533D02*
X98166667Y-66271295D01*
X98166667Y-66271295D02*
X98214286Y-66176057D01*
X98214286Y-66176057D02*
X98261905Y-66128438D01*
X98261905Y-66128438D02*
X98357143Y-66080819D01*
X98357143Y-66080819D02*
X98595238Y-66080819D01*
X98595238Y-66080819D02*
X98738095Y-66128438D01*
X99071429Y-66080819D02*
X99309524Y-67080819D01*
X99309524Y-67080819D02*
X99500000Y-66366533D01*
X99500000Y-66366533D02*
X99690476Y-67080819D01*
X99690476Y-67080819D02*
X99928572Y-66080819D01*
X100833333Y-67080819D02*
X100261905Y-67080819D01*
X100547619Y-67080819D02*
X100547619Y-66080819D01*
X100547619Y-66080819D02*
X100452381Y-66223676D01*
X100452381Y-66223676D02*
X100357143Y-66318914D01*
X100357143Y-66318914D02*
X100261905Y-66366533D01*
X114166666Y-63684819D02*
X114166666Y-64399104D01*
X114166666Y-64399104D02*
X114119047Y-64541961D01*
X114119047Y-64541961D02*
X114023809Y-64637200D01*
X114023809Y-64637200D02*
X113880952Y-64684819D01*
X113880952Y-64684819D02*
X113785714Y-64684819D01*
X114595238Y-63780057D02*
X114642857Y-63732438D01*
X114642857Y-63732438D02*
X114738095Y-63684819D01*
X114738095Y-63684819D02*
X114976190Y-63684819D01*
X114976190Y-63684819D02*
X115071428Y-63732438D01*
X115071428Y-63732438D02*
X115119047Y-63780057D01*
X115119047Y-63780057D02*
X115166666Y-63875295D01*
X115166666Y-63875295D02*
X115166666Y-63970533D01*
X115166666Y-63970533D02*
X115119047Y-64113390D01*
X115119047Y-64113390D02*
X114547619Y-64684819D01*
X114547619Y-64684819D02*
X115166666Y-64684819D01*
X114742319Y-97664404D02*
X115551842Y-97664404D01*
X115551842Y-97664404D02*
X115647080Y-97616785D01*
X115647080Y-97616785D02*
X115694700Y-97569166D01*
X115694700Y-97569166D02*
X115742319Y-97473928D01*
X115742319Y-97473928D02*
X115742319Y-97283452D01*
X115742319Y-97283452D02*
X115694700Y-97188214D01*
X115694700Y-97188214D02*
X115647080Y-97140595D01*
X115647080Y-97140595D02*
X115551842Y-97092976D01*
X115551842Y-97092976D02*
X114742319Y-97092976D01*
X114837557Y-96664404D02*
X114789938Y-96616785D01*
X114789938Y-96616785D02*
X114742319Y-96521547D01*
X114742319Y-96521547D02*
X114742319Y-96283452D01*
X114742319Y-96283452D02*
X114789938Y-96188214D01*
X114789938Y-96188214D02*
X114837557Y-96140595D01*
X114837557Y-96140595D02*
X114932795Y-96092976D01*
X114932795Y-96092976D02*
X115028033Y-96092976D01*
X115028033Y-96092976D02*
X115170890Y-96140595D01*
X115170890Y-96140595D02*
X115742319Y-96712023D01*
X115742319Y-96712023D02*
X115742319Y-96092976D01*
D12*
%TO.C,G\u002A\u002A\u002A*%
G36*
X98635845Y-88900426D02*
G01*
X108151076Y-88906974D01*
X108157642Y-95230923D01*
X108164208Y-101554872D01*
X98642411Y-101554872D01*
X89120615Y-101554872D01*
X89120615Y-101294359D01*
X89381127Y-101294359D01*
X98642358Y-101294359D01*
X107903589Y-101294359D01*
X107903589Y-95224410D01*
X107903589Y-89154461D01*
X98642358Y-89154461D01*
X89381127Y-89154461D01*
X89381127Y-95224410D01*
X89381127Y-101294359D01*
X89120615Y-101294359D01*
X89120615Y-95224410D01*
X89120615Y-95224375D01*
X89120615Y-88893878D01*
X98635845Y-88900426D01*
G37*
G36*
X101989948Y-98030648D02*
G01*
X101989948Y-98265465D01*
X101762632Y-98294808D01*
X101552955Y-98336004D01*
X101378454Y-98403653D01*
X101226503Y-98503486D01*
X101148652Y-98573512D01*
X101010926Y-98743327D01*
X100914373Y-98936400D01*
X100862044Y-99143403D01*
X100856986Y-99355007D01*
X100867783Y-99433015D01*
X100920023Y-99622885D01*
X101005722Y-99788588D01*
X101133215Y-99945648D01*
X101155063Y-99968020D01*
X101311916Y-100096983D01*
X101487820Y-100184479D01*
X101691700Y-100234351D01*
X101801076Y-100245980D01*
X101989948Y-100259159D01*
X101989948Y-100490195D01*
X101989948Y-100721231D01*
X101775025Y-100718614D01*
X101659026Y-100714405D01*
X101549653Y-100705684D01*
X101467976Y-100694209D01*
X101458982Y-100692257D01*
X101320494Y-100646302D01*
X101165741Y-100573475D01*
X101014799Y-100484242D01*
X100904352Y-100403192D01*
X100706041Y-100207045D01*
X100553530Y-99986256D01*
X100447369Y-99742006D01*
X100388107Y-99475480D01*
X100374769Y-99262359D01*
X100396572Y-98988819D01*
X100463288Y-98739574D01*
X100576879Y-98509428D01*
X100739303Y-98293183D01*
X100741194Y-98291058D01*
X100941212Y-98104301D01*
X101167929Y-97961938D01*
X101419099Y-97865041D01*
X101692477Y-97814680D01*
X101748974Y-97810325D01*
X101989948Y-97795832D01*
X101989948Y-98030648D01*
G37*
G36*
X103943794Y-98036074D02*
G01*
X103943794Y-98268661D01*
X103793999Y-98284488D01*
X103580419Y-98319055D01*
X103402541Y-98376691D01*
X103246952Y-98463077D01*
X103111032Y-98573699D01*
X103044702Y-98646705D01*
X102976855Y-98739066D01*
X102916084Y-98836758D01*
X102870985Y-98925759D01*
X102850151Y-98992045D01*
X102849640Y-99000206D01*
X102875537Y-99012501D01*
X102952845Y-99021239D01*
X103080992Y-99026380D01*
X103241387Y-99027897D01*
X103633134Y-99027897D01*
X103625644Y-99268872D01*
X103618153Y-99509846D01*
X103232365Y-99517064D01*
X103083550Y-99520050D01*
X102979377Y-99523392D01*
X102912395Y-99528407D01*
X102875151Y-99536417D01*
X102860194Y-99548739D01*
X102860073Y-99566693D01*
X102864477Y-99582192D01*
X102939655Y-99748629D01*
X103054952Y-99907807D01*
X103198702Y-100046735D01*
X103359237Y-100152424D01*
X103390059Y-100167394D01*
X103530388Y-100217341D01*
X103689140Y-100243437D01*
X103741381Y-100247284D01*
X103943794Y-100259002D01*
X103943794Y-100490116D01*
X103943794Y-100721231D01*
X103715845Y-100719327D01*
X103530999Y-100708320D01*
X103383812Y-100679521D01*
X103357640Y-100670996D01*
X103152171Y-100585711D01*
X102979596Y-100484587D01*
X102820850Y-100355630D01*
X102755728Y-100292327D01*
X102575956Y-100076606D01*
X102445291Y-99843524D01*
X102363611Y-99592788D01*
X102330797Y-99324108D01*
X102330116Y-99263398D01*
X102356824Y-98995204D01*
X102429755Y-98743117D01*
X102544425Y-98511609D01*
X102696349Y-98305151D01*
X102881041Y-98128215D01*
X103094016Y-97985272D01*
X103330790Y-97880794D01*
X103586877Y-97819253D01*
X103793999Y-97803939D01*
X103943794Y-97803487D01*
X103943794Y-98036074D01*
G37*
G36*
X105238578Y-98376601D02*
G01*
X105288847Y-98433383D01*
X105361543Y-98518844D01*
X105451594Y-98626991D01*
X105553928Y-98751828D01*
X105598271Y-98806461D01*
X105705534Y-98938852D01*
X105803542Y-99059552D01*
X105886922Y-99161965D01*
X105950301Y-99239496D01*
X105988304Y-99285548D01*
X105994877Y-99293310D01*
X106002891Y-99308408D01*
X106001726Y-99329828D01*
X105988366Y-99361837D01*
X105959794Y-99408703D01*
X105912991Y-99474691D01*
X105844941Y-99564069D01*
X105752626Y-99681104D01*
X105633029Y-99830062D01*
X105492871Y-100003208D01*
X105328692Y-100204658D01*
X105194567Y-100366992D01*
X105088613Y-100492258D01*
X105008948Y-100582506D01*
X104953687Y-100639787D01*
X104920949Y-100666150D01*
X104908851Y-100663645D01*
X104915510Y-100634321D01*
X104917123Y-100630023D01*
X104938683Y-100595239D01*
X104986208Y-100529631D01*
X105052628Y-100442667D01*
X105129170Y-100345938D01*
X105326212Y-100100958D01*
X105273468Y-99349504D01*
X105259274Y-99150024D01*
X105245495Y-98961469D01*
X105232743Y-98791843D01*
X105221633Y-98649149D01*
X105212776Y-98541390D01*
X105206785Y-98476570D01*
X105206250Y-98471723D01*
X105202018Y-98398431D01*
X105208367Y-98358264D01*
X105215808Y-98354492D01*
X105238578Y-98376601D01*
G37*
G36*
X106086754Y-99436807D02*
G01*
X106131864Y-99479215D01*
X106196855Y-99550960D01*
X106285614Y-99656074D01*
X106402028Y-99798588D01*
X106402750Y-99799480D01*
X106734057Y-100208954D01*
X106657858Y-100240993D01*
X106566952Y-100303076D01*
X106510485Y-100391787D01*
X106496820Y-100466514D01*
X106496820Y-100538872D01*
X106029709Y-100538872D01*
X105863476Y-100539038D01*
X105742114Y-100540132D01*
X105658392Y-100543045D01*
X105605079Y-100548668D01*
X105574943Y-100557893D01*
X105560752Y-100571612D01*
X105555277Y-100590716D01*
X105554273Y-100597487D01*
X105537627Y-100638473D01*
X105493147Y-100658450D01*
X105448256Y-100664188D01*
X105350563Y-100672273D01*
X105350563Y-100473292D01*
X105350563Y-100274312D01*
X105680193Y-99866028D01*
X105782453Y-99739573D01*
X105874919Y-99625619D01*
X105952094Y-99530909D01*
X106008482Y-99462184D01*
X106038584Y-99426189D01*
X106040633Y-99423875D01*
X106057640Y-99419704D01*
X106086754Y-99436807D01*
G37*
G36*
X106792092Y-100308263D02*
G01*
X106850686Y-100358624D01*
X106852777Y-100360646D01*
X106919362Y-100444775D01*
X106935122Y-100520052D01*
X106900201Y-100588451D01*
X106871050Y-100615135D01*
X106782264Y-100660206D01*
X106693793Y-100662847D01*
X106619770Y-100622975D01*
X106613746Y-100616689D01*
X106569803Y-100534550D01*
X106569891Y-100490391D01*
X106687870Y-100490391D01*
X106708898Y-100526892D01*
X106758870Y-100538872D01*
X106801524Y-100519510D01*
X106809435Y-100488307D01*
X106793544Y-100432866D01*
X106754606Y-100417877D01*
X106712673Y-100442110D01*
X106687870Y-100490391D01*
X106569891Y-100490391D01*
X106569979Y-100446214D01*
X106610369Y-100365681D01*
X106687065Y-100306954D01*
X106701911Y-100300719D01*
X106748317Y-100291273D01*
X106792092Y-100308263D01*
G37*
G36*
X106930885Y-98378104D02*
G01*
X106934432Y-98392242D01*
X106934784Y-98394642D01*
X106961323Y-98442854D01*
X107012938Y-98459706D01*
X107058208Y-98470709D01*
X107078221Y-98500240D01*
X107082956Y-98564300D01*
X107082974Y-98572000D01*
X107079637Y-98639240D01*
X107061480Y-98670660D01*
X107016284Y-98682477D01*
X106998307Y-98684368D01*
X106940564Y-98698268D01*
X106913687Y-98721148D01*
X106913443Y-98723445D01*
X106911482Y-98756878D01*
X106906063Y-98835006D01*
X106897714Y-98950573D01*
X106886966Y-99096326D01*
X106874348Y-99265008D01*
X106862044Y-99427628D01*
X106810841Y-100100897D01*
X107018548Y-100357380D01*
X107115865Y-100479900D01*
X107180912Y-100568014D01*
X107216280Y-100626036D01*
X107224563Y-100658281D01*
X107208351Y-100669063D01*
X107205844Y-100669128D01*
X107185146Y-100649600D01*
X107135832Y-100594181D01*
X107061890Y-100507622D01*
X106967309Y-100394672D01*
X106856077Y-100260082D01*
X106732184Y-100108602D01*
X106646131Y-100002563D01*
X106106828Y-99335999D01*
X106333674Y-99058204D01*
X106488822Y-98868325D01*
X106614279Y-98715297D01*
X106713254Y-98595575D01*
X106788961Y-98505613D01*
X106844611Y-98441866D01*
X106883416Y-98400787D01*
X106908589Y-98378831D01*
X106923341Y-98372452D01*
X106930885Y-98378104D01*
G37*
G36*
X106567399Y-98355141D02*
G01*
X106685322Y-98356313D01*
X106765658Y-98358254D01*
X106801705Y-98360921D01*
X106802934Y-98361430D01*
X106790054Y-98383100D01*
X106749846Y-98438132D01*
X106687882Y-98519492D01*
X106609736Y-98620141D01*
X106520979Y-98733042D01*
X106427184Y-98851160D01*
X106333925Y-98967455D01*
X106246773Y-99074892D01*
X106171301Y-99166433D01*
X106113082Y-99235042D01*
X106094652Y-99255838D01*
X106077439Y-99257752D01*
X106045912Y-99236469D01*
X105996725Y-99188415D01*
X105926531Y-99110017D01*
X105831981Y-98997700D01*
X105709728Y-98847890D01*
X105692043Y-98825992D01*
X105604018Y-98716894D01*
X105715281Y-98716894D01*
X105729447Y-98756371D01*
X105760871Y-98807255D01*
X105784948Y-98835762D01*
X105814652Y-98854061D01*
X105861187Y-98864452D01*
X105935752Y-98869230D01*
X106049549Y-98870695D01*
X106070490Y-98870771D01*
X106190640Y-98870445D01*
X106269737Y-98867046D01*
X106318823Y-98858289D01*
X106348944Y-98841884D01*
X106371141Y-98815547D01*
X106376593Y-98807378D01*
X106407133Y-98752301D01*
X106418666Y-98716198D01*
X106393166Y-98704241D01*
X106318685Y-98695617D01*
X106198255Y-98690557D01*
X106066974Y-98689231D01*
X105905513Y-98691258D01*
X105792527Y-98697272D01*
X105729293Y-98707174D01*
X105715281Y-98716894D01*
X105604018Y-98716894D01*
X105318958Y-98363590D01*
X106055100Y-98356664D01*
X106245588Y-98355274D01*
X106418587Y-98354780D01*
X106567399Y-98355141D01*
G37*
G36*
X105141794Y-98241039D02*
G01*
X105151574Y-98259384D01*
X105151103Y-98294008D01*
X105122920Y-98293338D01*
X105107418Y-98281094D01*
X105090633Y-98245156D01*
X105105701Y-98221379D01*
X105113315Y-98220308D01*
X105141794Y-98241039D01*
G37*
G36*
X106151443Y-97810606D02*
G01*
X106200502Y-97835679D01*
X106216301Y-97855590D01*
X106237183Y-97880142D01*
X106269960Y-97895580D01*
X106325648Y-97903955D01*
X106415262Y-97907319D01*
X106496574Y-97907789D01*
X106623524Y-97909995D01*
X106712132Y-97917917D01*
X106776031Y-97933687D01*
X106828860Y-97959440D01*
X106829603Y-97959892D01*
X106923446Y-98003755D01*
X106998598Y-98003174D01*
X107066955Y-97955891D01*
X107107509Y-97907076D01*
X107167922Y-97833912D01*
X107207742Y-97804838D01*
X107225457Y-97820806D01*
X107226256Y-97832380D01*
X107210756Y-97863440D01*
X107168827Y-97924955D01*
X107107323Y-98007293D01*
X107050410Y-98079478D01*
X106874563Y-98297684D01*
X106066974Y-98296358D01*
X105259384Y-98295033D01*
X105083538Y-98077086D01*
X105011555Y-97985416D01*
X104953823Y-97907227D01*
X104917198Y-97852101D01*
X104907692Y-97831313D01*
X104918986Y-97804429D01*
X104953461Y-97821180D01*
X105012003Y-97882227D01*
X105065896Y-97949227D01*
X105125377Y-98024046D01*
X105163088Y-98062533D01*
X105187719Y-98070628D01*
X105207963Y-98054268D01*
X105211939Y-98049010D01*
X105268744Y-97986175D01*
X105337541Y-97944366D01*
X105429469Y-97919932D01*
X105555665Y-97909224D01*
X105642724Y-97907864D01*
X105761126Y-97906724D01*
X105838123Y-97902174D01*
X105884393Y-97892228D01*
X105900412Y-97881641D01*
X105988820Y-97881641D01*
X105999916Y-97899289D01*
X106053240Y-97907469D01*
X106066974Y-97907692D01*
X106127068Y-97901610D01*
X106146691Y-97885475D01*
X106145127Y-97881641D01*
X106109127Y-97861290D01*
X106066974Y-97855590D01*
X106012422Y-97865423D01*
X105988820Y-97881641D01*
X105900412Y-97881641D01*
X105910615Y-97874898D01*
X105923692Y-97855590D01*
X105956566Y-97820634D01*
X106015636Y-97805463D01*
X106067669Y-97803487D01*
X106151443Y-97810606D01*
G37*
G36*
X107043803Y-98217405D02*
G01*
X107034907Y-98258261D01*
X107007330Y-98293476D01*
X106992391Y-98298461D01*
X106981403Y-98281094D01*
X106997100Y-98247544D01*
X107028984Y-98210616D01*
X107043803Y-98217405D01*
G37*
G36*
X90481171Y-96802687D02*
G01*
X90355261Y-96932868D01*
X90257371Y-97074625D01*
X90201050Y-97202970D01*
X90181921Y-97266760D01*
X90265472Y-97196457D01*
X90339701Y-97147595D01*
X90422181Y-97128501D01*
X90470767Y-97127077D01*
X90558636Y-97134784D01*
X90633775Y-97153019D01*
X90652697Y-97161397D01*
X90739742Y-97236832D01*
X90792868Y-97339518D01*
X90812117Y-97457189D01*
X90797526Y-97577581D01*
X90749135Y-97688426D01*
X90666985Y-97777461D01*
X90650679Y-97788884D01*
X90543975Y-97832934D01*
X90420167Y-97845952D01*
X90303123Y-97826536D01*
X90267390Y-97811414D01*
X90156640Y-97726455D01*
X90082907Y-97608943D01*
X90051325Y-97477846D01*
X90188717Y-97477846D01*
X90209741Y-97591575D01*
X90267532Y-97673929D01*
X90354165Y-97720320D01*
X90461718Y-97726160D01*
X90564481Y-97695444D01*
X90624581Y-97642324D01*
X90664110Y-97557205D01*
X90676259Y-97458338D01*
X90670394Y-97411479D01*
X90626750Y-97312339D01*
X90548239Y-97251800D01*
X90435566Y-97230394D01*
X90430108Y-97230359D01*
X90316022Y-97249414D01*
X90237818Y-97306195D01*
X90196060Y-97400127D01*
X90188717Y-97477846D01*
X90051325Y-97477846D01*
X90048211Y-97464919D01*
X90054570Y-97300427D01*
X90070884Y-97223163D01*
X90106782Y-97106172D01*
X90151433Y-97010904D01*
X90215264Y-96919664D01*
X90308701Y-96814754D01*
X90316062Y-96807025D01*
X90388924Y-96736326D01*
X90445591Y-96698370D01*
X90501172Y-96684251D01*
X90525957Y-96683282D01*
X90617668Y-96683282D01*
X90481171Y-96802687D01*
G37*
G36*
X91545669Y-96686227D02*
G01*
X91652376Y-96735233D01*
X91730592Y-96821108D01*
X91782353Y-96946786D01*
X91809694Y-97115199D01*
X91815386Y-97257656D01*
X91814004Y-97382524D01*
X91806863Y-97471552D01*
X91791205Y-97540913D01*
X91764274Y-97606785D01*
X91751511Y-97632326D01*
X91666769Y-97749734D01*
X91559194Y-97824528D01*
X91436035Y-97853708D01*
X91304538Y-97834273D01*
X91282884Y-97826322D01*
X91173772Y-97755482D01*
X91093695Y-97642200D01*
X91043189Y-97487649D01*
X91022793Y-97293007D01*
X91022358Y-97256410D01*
X91153858Y-97256410D01*
X91166854Y-97434985D01*
X91204976Y-97572148D01*
X91266922Y-97666367D01*
X91351392Y-97716110D01*
X91457085Y-97719844D01*
X91529922Y-97699448D01*
X91591360Y-97657380D01*
X91634592Y-97581837D01*
X91661215Y-97467745D01*
X91672827Y-97310028D01*
X91673640Y-97242927D01*
X91666691Y-97072426D01*
X91643766Y-96947106D01*
X91601749Y-96861657D01*
X91537525Y-96810772D01*
X91447977Y-96789141D01*
X91406356Y-96787487D01*
X91309170Y-96810840D01*
X91234878Y-96880033D01*
X91184179Y-96993765D01*
X91157773Y-97150738D01*
X91153858Y-97256410D01*
X91022358Y-97256410D01*
X91036864Y-97067738D01*
X91078814Y-96908103D01*
X91145860Y-96785132D01*
X91178824Y-96748258D01*
X91233516Y-96703144D01*
X91289613Y-96680047D01*
X91368323Y-96671847D01*
X91408437Y-96671157D01*
X91545669Y-96686227D01*
G37*
G36*
X92549750Y-96687454D02*
G01*
X92652579Y-96742822D01*
X92733713Y-96842021D01*
X92754769Y-96880348D01*
X92787103Y-96979584D01*
X92805920Y-97112076D01*
X92811344Y-97261007D01*
X92803494Y-97409560D01*
X92782492Y-97540917D01*
X92749305Y-97636687D01*
X92665113Y-97748182D01*
X92556966Y-97820872D01*
X92434877Y-97851307D01*
X92308857Y-97836040D01*
X92246769Y-97809798D01*
X92156243Y-97733619D01*
X92090461Y-97632370D01*
X92059392Y-97564254D01*
X92039980Y-97498516D01*
X92029617Y-97419578D01*
X92027953Y-97373898D01*
X92171500Y-97373898D01*
X92180746Y-97496667D01*
X92202461Y-97585126D01*
X92238595Y-97647816D01*
X92282207Y-97687294D01*
X92372831Y-97721707D01*
X92474045Y-97716265D01*
X92564742Y-97672470D01*
X92571645Y-97666718D01*
X92622237Y-97593415D01*
X92657652Y-97483757D01*
X92677535Y-97351339D01*
X92681533Y-97209754D01*
X92669292Y-97072597D01*
X92640458Y-96953463D01*
X92594677Y-96865944D01*
X92592556Y-96863374D01*
X92510601Y-96802485D01*
X92412471Y-96782737D01*
X92314483Y-96804538D01*
X92244797Y-96854642D01*
X92216635Y-96888887D01*
X92197749Y-96927847D01*
X92185807Y-96982969D01*
X92178477Y-97065699D01*
X92173428Y-97187483D01*
X92172771Y-97208276D01*
X92171500Y-97373898D01*
X92027953Y-97373898D01*
X92025694Y-97311861D01*
X92025333Y-97243384D01*
X92027621Y-97109493D01*
X92035831Y-97013510D01*
X92051978Y-96941390D01*
X92077435Y-96880348D01*
X92153927Y-96767185D01*
X92249430Y-96699518D01*
X92373070Y-96671685D01*
X92416102Y-96670256D01*
X92549750Y-96687454D01*
G37*
G36*
X94507259Y-96674485D02*
G01*
X94565659Y-96688324D01*
X94613128Y-96720909D01*
X94657828Y-96766818D01*
X94728124Y-96863937D01*
X94772762Y-96978859D01*
X94794375Y-97121921D01*
X94795595Y-97303458D01*
X94795445Y-97307179D01*
X94776163Y-97491161D01*
X94733919Y-97632899D01*
X94666628Y-97737886D01*
X94613898Y-97785132D01*
X94534309Y-97822324D01*
X94431895Y-97843956D01*
X94330919Y-97846732D01*
X94265743Y-97832424D01*
X94180251Y-97774352D01*
X94100871Y-97685416D01*
X94044992Y-97585619D01*
X94040482Y-97573251D01*
X94016880Y-97462742D01*
X94006779Y-97323394D01*
X94008033Y-97256410D01*
X94148512Y-97256410D01*
X94155632Y-97429178D01*
X94178981Y-97556805D01*
X94221543Y-97644544D01*
X94286303Y-97697644D01*
X94376245Y-97721357D01*
X94414085Y-97723682D01*
X94482813Y-97707959D01*
X94551014Y-97667747D01*
X94552218Y-97666718D01*
X94615858Y-97578724D01*
X94654492Y-97445872D01*
X94668256Y-97267673D01*
X94668295Y-97256410D01*
X94655720Y-97075923D01*
X94618462Y-96937952D01*
X94557221Y-96843797D01*
X94472697Y-96794758D01*
X94415797Y-96787487D01*
X94316392Y-96800312D01*
X94242844Y-96842059D01*
X94192357Y-96917637D01*
X94162131Y-97031953D01*
X94149370Y-97189917D01*
X94148512Y-97256410D01*
X94008033Y-97256410D01*
X94009582Y-97173631D01*
X94024686Y-97031876D01*
X94051491Y-96916553D01*
X94062830Y-96887377D01*
X94127565Y-96777524D01*
X94209199Y-96709530D01*
X94318617Y-96676757D01*
X94417370Y-96671219D01*
X94507259Y-96674485D01*
G37*
G36*
X95537727Y-96991286D02*
G01*
X95646082Y-97054737D01*
X95723590Y-97159963D01*
X95769801Y-97306538D01*
X95773402Y-97328051D01*
X95790359Y-97438769D01*
X95461153Y-97438769D01*
X95131948Y-97438769D01*
X95148202Y-97523436D01*
X95191005Y-97621464D01*
X95269073Y-97692212D01*
X95369061Y-97724477D01*
X95388694Y-97725333D01*
X95475897Y-97713402D01*
X95559736Y-97683008D01*
X95621665Y-97642250D01*
X95640984Y-97615163D01*
X95660127Y-97599013D01*
X95697460Y-97624231D01*
X95700211Y-97626830D01*
X95731102Y-97661797D01*
X95727053Y-97690828D01*
X95697114Y-97726935D01*
X95638814Y-97781838D01*
X95575279Y-97814733D01*
X95486157Y-97834975D01*
X95451076Y-97840021D01*
X95327074Y-97840179D01*
X95255692Y-97819862D01*
X95140486Y-97740513D01*
X95059699Y-97629187D01*
X95016285Y-97495439D01*
X95013201Y-97348824D01*
X95020742Y-97320702D01*
X95138461Y-97320702D01*
X95162624Y-97326658D01*
X95227572Y-97331333D01*
X95321989Y-97334092D01*
X95385948Y-97334564D01*
X95503310Y-97333256D01*
X95577562Y-97328357D01*
X95617652Y-97318409D01*
X95632529Y-97301952D01*
X95633435Y-97294193D01*
X95618392Y-97230092D01*
X95582024Y-97159444D01*
X95537471Y-97104885D01*
X95515037Y-97090234D01*
X95430738Y-97075090D01*
X95334762Y-97080692D01*
X95264799Y-97102199D01*
X95224740Y-97141403D01*
X95181621Y-97207256D01*
X95148653Y-97276908D01*
X95138461Y-97320702D01*
X95020742Y-97320702D01*
X95053404Y-97198897D01*
X95059364Y-97185307D01*
X95136753Y-97071621D01*
X95245045Y-96999117D01*
X95380101Y-96970418D01*
X95398974Y-96970041D01*
X95537727Y-96991286D01*
G37*
G36*
X97077501Y-94997119D02*
G01*
X97105595Y-95024091D01*
X97136684Y-95079735D01*
X97176450Y-95172831D01*
X97194291Y-95217991D01*
X97240486Y-95335091D01*
X97286198Y-95448921D01*
X97323648Y-95540169D01*
X97333311Y-95563077D01*
X97383373Y-95680308D01*
X97519189Y-95341641D01*
X97576242Y-95202593D01*
X97619773Y-95105531D01*
X97653734Y-95043358D01*
X97682074Y-95008975D01*
X97708745Y-94995284D01*
X97712323Y-94994649D01*
X97756985Y-94998984D01*
X97769640Y-95015179D01*
X97759555Y-95054532D01*
X97731785Y-95132566D01*
X97690059Y-95240466D01*
X97638104Y-95369415D01*
X97579648Y-95510594D01*
X97518421Y-95655188D01*
X97458149Y-95794379D01*
X97402561Y-95919351D01*
X97355385Y-96021287D01*
X97320350Y-96091369D01*
X97302676Y-96119538D01*
X97246198Y-96152954D01*
X97163268Y-96177164D01*
X97134302Y-96181541D01*
X97061030Y-96187476D01*
X97025674Y-96180328D01*
X97014725Y-96155381D01*
X97014153Y-96139593D01*
X97022174Y-96103026D01*
X97055690Y-96087156D01*
X97114819Y-96084102D01*
X97178355Y-96080151D01*
X97215659Y-96059349D01*
X97243964Y-96008278D01*
X97258101Y-95972513D01*
X97283947Y-95898148D01*
X97299080Y-95841673D01*
X97300717Y-95828502D01*
X97291226Y-95794295D01*
X97265030Y-95721057D01*
X97225548Y-95617814D01*
X97176195Y-95493597D01*
X97144410Y-95415534D01*
X97091025Y-95284204D01*
X97045482Y-95169568D01*
X97011171Y-95080371D01*
X96991484Y-95025359D01*
X96988102Y-95012469D01*
X97010202Y-94994920D01*
X97046717Y-94990043D01*
X97077501Y-94997119D01*
G37*
G36*
X91506882Y-95000523D02*
G01*
X91594880Y-95035633D01*
X91657410Y-95100624D01*
X91697811Y-95200750D01*
X91719424Y-95341261D01*
X91725598Y-95517487D01*
X91726587Y-95627035D01*
X91730921Y-95694539D01*
X91740901Y-95730049D01*
X91758833Y-95743615D01*
X91777845Y-95745436D01*
X91821385Y-95763857D01*
X91829948Y-95797538D01*
X91810783Y-95839076D01*
X91763215Y-95852819D01*
X91702139Y-95839962D01*
X91642447Y-95801696D01*
X91623429Y-95780999D01*
X91587941Y-95743308D01*
X91569978Y-95738758D01*
X91569435Y-95742305D01*
X91547710Y-95776777D01*
X91494547Y-95816989D01*
X91427962Y-95852287D01*
X91365975Y-95872016D01*
X91347999Y-95873245D01*
X91286169Y-95864444D01*
X91211366Y-95846582D01*
X91119562Y-95795247D01*
X91061885Y-95708008D01*
X91045246Y-95611446D01*
X91178666Y-95611446D01*
X91191488Y-95683828D01*
X91235088Y-95726139D01*
X91317163Y-95743935D01*
X91364344Y-95745436D01*
X91448061Y-95739829D01*
X91501706Y-95717495D01*
X91541493Y-95676794D01*
X91580049Y-95605261D01*
X91595486Y-95533512D01*
X91593006Y-95491606D01*
X91577224Y-95469334D01*
X91535630Y-95460491D01*
X91455715Y-95458875D01*
X91444975Y-95458872D01*
X91313445Y-95470961D01*
X91226910Y-95507721D01*
X91184088Y-95569885D01*
X91178666Y-95611446D01*
X91045246Y-95611446D01*
X91043199Y-95599566D01*
X91064284Y-95501731D01*
X91128257Y-95429289D01*
X91236196Y-95381629D01*
X91389179Y-95358140D01*
X91473813Y-95355288D01*
X91599626Y-95354666D01*
X91581631Y-95270000D01*
X91545901Y-95171053D01*
X91485563Y-95114773D01*
X91392789Y-95094501D01*
X91374925Y-95094154D01*
X91267979Y-95111322D01*
X91208282Y-95148526D01*
X91150204Y-95183953D01*
X91101350Y-95183098D01*
X91075641Y-95147506D01*
X91074461Y-95133665D01*
X91098497Y-95083725D01*
X91162548Y-95039597D01*
X91254526Y-95006780D01*
X91362344Y-94990776D01*
X91390076Y-94990046D01*
X91506882Y-95000523D01*
G37*
G36*
X96511485Y-94693741D02*
G01*
X96630491Y-94735320D01*
X96726749Y-94794017D01*
X96733359Y-94799786D01*
X96764869Y-94835050D01*
X96757437Y-94865488D01*
X96736422Y-94890376D01*
X96703725Y-94921151D01*
X96676081Y-94919012D01*
X96632576Y-94882142D01*
X96631649Y-94881271D01*
X96569078Y-94841422D01*
X96478081Y-94818991D01*
X96417537Y-94812819D01*
X96325330Y-94809313D01*
X96267022Y-94817898D01*
X96225090Y-94842276D01*
X96209483Y-94856772D01*
X96163260Y-94936953D01*
X96159016Y-95032016D01*
X96180937Y-95094948D01*
X96196819Y-95117730D01*
X96222960Y-95136996D01*
X96268332Y-95156162D01*
X96341910Y-95178643D01*
X96452664Y-95207854D01*
X96526389Y-95226453D01*
X96651234Y-95277002D01*
X96733187Y-95356560D01*
X96774061Y-95467383D01*
X96779692Y-95541028D01*
X96773919Y-95629946D01*
X96750856Y-95691341D01*
X96705998Y-95744984D01*
X96615074Y-95809268D01*
X96499983Y-95855477D01*
X96387749Y-95873143D01*
X96375897Y-95872854D01*
X96315690Y-95864472D01*
X96238048Y-95847399D01*
X96229491Y-95845162D01*
X96147331Y-95811052D01*
X96063246Y-95758440D01*
X96047132Y-95745594D01*
X95994163Y-95698585D01*
X95976992Y-95670678D01*
X95991068Y-95648011D01*
X96010147Y-95633004D01*
X96047112Y-95612141D01*
X96083074Y-95617320D01*
X96136542Y-95652364D01*
X96148795Y-95661636D01*
X96253406Y-95716760D01*
X96376155Y-95740027D01*
X96461284Y-95744065D01*
X96515061Y-95734412D01*
X96557651Y-95705167D01*
X96582686Y-95679595D01*
X96635872Y-95593247D01*
X96646315Y-95503526D01*
X96613106Y-95424051D01*
X96600696Y-95410132D01*
X96552020Y-95380818D01*
X96469021Y-95348861D01*
X96368683Y-95320683D01*
X96357239Y-95318073D01*
X96208222Y-95274243D01*
X96105358Y-95216891D01*
X96043430Y-95141200D01*
X96017222Y-95042351D01*
X96015521Y-95002532D01*
X96037177Y-94875684D01*
X96100596Y-94778578D01*
X96203448Y-94713194D01*
X96343406Y-94681511D01*
X96396272Y-94678804D01*
X96511485Y-94693741D01*
G37*
G36*
X98467487Y-94992942D02*
G01*
X98577870Y-95019929D01*
X98622820Y-95041766D01*
X98685416Y-95085910D01*
X98704622Y-95120933D01*
X98685141Y-95157762D01*
X98676581Y-95166742D01*
X98642689Y-95182127D01*
X98599669Y-95156003D01*
X98598023Y-95154523D01*
X98543330Y-95126676D01*
X98458229Y-95105743D01*
X98410472Y-95099797D01*
X98321878Y-95096324D01*
X98265537Y-95107121D01*
X98222584Y-95136396D01*
X98215491Y-95143277D01*
X98169890Y-95205683D01*
X98170074Y-95258090D01*
X98217654Y-95302149D01*
X98314245Y-95339512D01*
X98433948Y-95366837D01*
X98567309Y-95398306D01*
X98656179Y-95437458D01*
X98708150Y-95490545D01*
X98730813Y-95563819D01*
X98733538Y-95613524D01*
X98709977Y-95715136D01*
X98641539Y-95793521D01*
X98531594Y-95845128D01*
X98508107Y-95851195D01*
X98421078Y-95868196D01*
X98351927Y-95869965D01*
X98271081Y-95856324D01*
X98241763Y-95849587D01*
X98160486Y-95819952D01*
X98082816Y-95775146D01*
X98026728Y-95726715D01*
X98011156Y-95701471D01*
X98018076Y-95668799D01*
X98058742Y-95658336D01*
X98119459Y-95670746D01*
X98167361Y-95693885D01*
X98255422Y-95728051D01*
X98364579Y-95744370D01*
X98471898Y-95741381D01*
X98552891Y-95718468D01*
X98591697Y-95672928D01*
X98603489Y-95607520D01*
X98587722Y-95545362D01*
X98557692Y-95514890D01*
X98506835Y-95498022D01*
X98425862Y-95480750D01*
X98368820Y-95471842D01*
X98230449Y-95444129D01*
X98135768Y-95401640D01*
X98077489Y-95340376D01*
X98060044Y-95302381D01*
X98047475Y-95200767D01*
X98085265Y-95109659D01*
X98148952Y-95045472D01*
X98233666Y-95005865D01*
X98346298Y-94988304D01*
X98467487Y-94992942D01*
G37*
G36*
X100500809Y-95012014D02*
G01*
X100614953Y-95074487D01*
X100694758Y-95172656D01*
X100735326Y-95301713D01*
X100739486Y-95365116D01*
X100739486Y-95458872D01*
X100426871Y-95458872D01*
X100114256Y-95458872D01*
X100114256Y-95522001D01*
X100130678Y-95582690D01*
X100171225Y-95652069D01*
X100181700Y-95665283D01*
X100266394Y-95729295D01*
X100368359Y-95749993D01*
X100475369Y-95727009D01*
X100556903Y-95676499D01*
X100611880Y-95634563D01*
X100645985Y-95625150D01*
X100675377Y-95644125D01*
X100677043Y-95645776D01*
X100694297Y-95692726D01*
X100669472Y-95746041D01*
X100610398Y-95797131D01*
X100524905Y-95837407D01*
X100494165Y-95846378D01*
X100403166Y-95867348D01*
X100340425Y-95872402D01*
X100284033Y-95859684D01*
X100212078Y-95827340D01*
X100200245Y-95821501D01*
X100097674Y-95743910D01*
X100026921Y-95635642D01*
X99988897Y-95507967D01*
X99984512Y-95372152D01*
X99988487Y-95354666D01*
X100108607Y-95354666D01*
X100361743Y-95354666D01*
X100614878Y-95354666D01*
X100598048Y-95283025D01*
X100552334Y-95191684D01*
X100472647Y-95124526D01*
X100375343Y-95094623D01*
X100361743Y-95094154D01*
X100263313Y-95118022D01*
X100180292Y-95180912D01*
X100129034Y-95269751D01*
X100125438Y-95283025D01*
X100108607Y-95354666D01*
X99988487Y-95354666D01*
X100014677Y-95239466D01*
X100080301Y-95121177D01*
X100138763Y-95060373D01*
X100205918Y-95014584D01*
X100279054Y-94993929D01*
X100357229Y-94990046D01*
X100500809Y-95012014D01*
G37*
G36*
X90593555Y-94703771D02*
G01*
X90693785Y-94705693D01*
X90757928Y-94710295D01*
X90793992Y-94718719D01*
X90809981Y-94732111D01*
X90813905Y-94751614D01*
X90813948Y-94755487D01*
X90810771Y-94777873D01*
X90795362Y-94792732D01*
X90758908Y-94801596D01*
X90692593Y-94805998D01*
X90587602Y-94807472D01*
X90514358Y-94807590D01*
X90214769Y-94807590D01*
X90214769Y-95002974D01*
X90214769Y-95198359D01*
X90488307Y-95198359D01*
X90761845Y-95198359D01*
X90761845Y-95263487D01*
X90761845Y-95328615D01*
X90488307Y-95328615D01*
X90214769Y-95328615D01*
X90214769Y-95589128D01*
X90214769Y-95849641D01*
X90149640Y-95849641D01*
X90084512Y-95849641D01*
X90084512Y-95276513D01*
X90084512Y-94703384D01*
X90449230Y-94703384D01*
X90593555Y-94703771D01*
G37*
G36*
X92375846Y-94707290D02*
G01*
X92394872Y-94727493D01*
X92402052Y-94776727D01*
X92403076Y-94846666D01*
X92403076Y-94989949D01*
X92598461Y-94989949D01*
X92698359Y-94991179D01*
X92756973Y-94996790D01*
X92785100Y-95009662D01*
X92793539Y-95032672D01*
X92793845Y-95042051D01*
X92789231Y-95068690D01*
X92768188Y-95084321D01*
X92719921Y-95091822D01*
X92633631Y-95094072D01*
X92598461Y-95094154D01*
X92403076Y-95094154D01*
X92403076Y-95419795D01*
X92403076Y-95745436D01*
X92598461Y-95745436D01*
X92698359Y-95746666D01*
X92756973Y-95752278D01*
X92785100Y-95765149D01*
X92793539Y-95788159D01*
X92793845Y-95797538D01*
X92789398Y-95823751D01*
X92768990Y-95839338D01*
X92722022Y-95847015D01*
X92637896Y-95849496D01*
X92590414Y-95849641D01*
X92452553Y-95843664D01*
X92362702Y-95825917D01*
X92336414Y-95812747D01*
X92315049Y-95791452D01*
X92299785Y-95757818D01*
X92289042Y-95702627D01*
X92281243Y-95616662D01*
X92274807Y-95490707D01*
X92272820Y-95441516D01*
X92259794Y-95107179D01*
X92123025Y-95099305D01*
X92041592Y-95091562D01*
X92000165Y-95077110D01*
X91986677Y-95050894D01*
X91986256Y-95042051D01*
X91994715Y-95012163D01*
X92028140Y-94995282D01*
X92098599Y-94986355D01*
X92123025Y-94984797D01*
X92259794Y-94976923D01*
X92267668Y-94840154D01*
X92274461Y-94760249D01*
X92287410Y-94719493D01*
X92313298Y-94704934D01*
X92339309Y-94703384D01*
X92375846Y-94707290D01*
G37*
G36*
X93523281Y-95210084D02*
G01*
X93523281Y-95716784D01*
X93673076Y-95724597D01*
X93758752Y-95731372D01*
X93805329Y-95743911D01*
X93825813Y-95767676D01*
X93831196Y-95791025D01*
X93833070Y-95813481D01*
X93826206Y-95829315D01*
X93803021Y-95839684D01*
X93755929Y-95845744D01*
X93677347Y-95848653D01*
X93559689Y-95849568D01*
X93446939Y-95849641D01*
X93054358Y-95849641D01*
X93054358Y-95784513D01*
X93057327Y-95749503D01*
X93074083Y-95730002D01*
X93116395Y-95721485D01*
X93196035Y-95719422D01*
X93223692Y-95719384D01*
X93393025Y-95719384D01*
X93393025Y-95263487D01*
X93391909Y-95115907D01*
X93388813Y-94988241D01*
X93384115Y-94888827D01*
X93378190Y-94826001D01*
X93372398Y-94807590D01*
X93344720Y-94824848D01*
X93293125Y-94869817D01*
X93236717Y-94924820D01*
X93159985Y-94997912D01*
X93106282Y-95033569D01*
X93066517Y-95035381D01*
X93031599Y-95006936D01*
X93030886Y-95006081D01*
X93023197Y-94980610D01*
X93042069Y-94945134D01*
X93093102Y-94892011D01*
X93154977Y-94836748D01*
X93239980Y-94766641D01*
X93303080Y-94726064D01*
X93359005Y-94707496D01*
X93416101Y-94703384D01*
X93523281Y-94703384D01*
X93523281Y-95210084D01*
G37*
G36*
X94455102Y-94686579D02*
G01*
X94564296Y-94718972D01*
X94655677Y-94779582D01*
X94718403Y-94867354D01*
X94736679Y-94926391D01*
X94748068Y-95015102D01*
X94742558Y-95092200D01*
X94715509Y-95166603D01*
X94662276Y-95247228D01*
X94578216Y-95342994D01*
X94458686Y-95462816D01*
X94456041Y-95465384D01*
X94194309Y-95719384D01*
X94497052Y-95719384D01*
X94799794Y-95719384D01*
X94799794Y-95784513D01*
X94799794Y-95849641D01*
X94409025Y-95849641D01*
X94018256Y-95849641D01*
X94019122Y-95778000D01*
X94028054Y-95736843D01*
X94058163Y-95689273D01*
X94115885Y-95627561D01*
X94207655Y-95543975D01*
X94230607Y-95524000D01*
X94370894Y-95397393D01*
X94472284Y-95292573D01*
X94539585Y-95202967D01*
X94577609Y-95122001D01*
X94591164Y-95043101D01*
X94591384Y-95030913D01*
X94577819Y-94918990D01*
X94534466Y-94847839D01*
X94457343Y-94812968D01*
X94393338Y-94807590D01*
X94283213Y-94827798D01*
X94195666Y-94882946D01*
X94144603Y-94962600D01*
X94125943Y-94983936D01*
X94085028Y-94971607D01*
X94075473Y-94966635D01*
X94038033Y-94941566D01*
X94033762Y-94911686D01*
X94057031Y-94860275D01*
X94129060Y-94769252D01*
X94226643Y-94710665D01*
X94338937Y-94683459D01*
X94455102Y-94686579D01*
G37*
G36*
X99331649Y-94707330D02*
G01*
X99350666Y-94727688D01*
X99357786Y-94777235D01*
X99358769Y-94845525D01*
X99358769Y-94987666D01*
X99547364Y-94995320D01*
X99648189Y-95001552D01*
X99707696Y-95012034D01*
X99736654Y-95029671D01*
X99744659Y-95048564D01*
X99743328Y-95071841D01*
X99721665Y-95085584D01*
X99669681Y-95092206D01*
X99577388Y-95094122D01*
X99556063Y-95094154D01*
X99358769Y-95094154D01*
X99358769Y-95419795D01*
X99358769Y-95745436D01*
X99554153Y-95745436D01*
X99654051Y-95746666D01*
X99712665Y-95752278D01*
X99740793Y-95765149D01*
X99749231Y-95788159D01*
X99749538Y-95797538D01*
X99745090Y-95823751D01*
X99724682Y-95839338D01*
X99677714Y-95847015D01*
X99593588Y-95849496D01*
X99546107Y-95849641D01*
X99408246Y-95843664D01*
X99318394Y-95825917D01*
X99292107Y-95812747D01*
X99270741Y-95791452D01*
X99255477Y-95757818D01*
X99244734Y-95702627D01*
X99236935Y-95616662D01*
X99230500Y-95490707D01*
X99228512Y-95441516D01*
X99215486Y-95107179D01*
X99078717Y-95099305D01*
X98997284Y-95091562D01*
X98955858Y-95077110D01*
X98942369Y-95050894D01*
X98941948Y-95042051D01*
X98950408Y-95012163D01*
X98983832Y-94995282D01*
X99054291Y-94986355D01*
X99078717Y-94984797D01*
X99215486Y-94976923D01*
X99223361Y-94840154D01*
X99230153Y-94760249D01*
X99243102Y-94719493D01*
X99268990Y-94704934D01*
X99295002Y-94703384D01*
X99331649Y-94707330D01*
G37*
G36*
X101285924Y-94994651D02*
G01*
X101345292Y-95021126D01*
X101366053Y-95044546D01*
X101395272Y-95099144D01*
X101447472Y-95043114D01*
X101506873Y-95002038D01*
X101587668Y-94994513D01*
X101594416Y-94995029D01*
X101651301Y-95005175D01*
X101693113Y-95029317D01*
X101722104Y-95074412D01*
X101740525Y-95147414D01*
X101750627Y-95255277D01*
X101754662Y-95404956D01*
X101755102Y-95491436D01*
X101755486Y-95849641D01*
X101691074Y-95849641D01*
X101626661Y-95849641D01*
X101619432Y-95478410D01*
X101616313Y-95332725D01*
X101612625Y-95230983D01*
X101606925Y-95165035D01*
X101597770Y-95126728D01*
X101583714Y-95107912D01*
X101563314Y-95100436D01*
X101552155Y-95098667D01*
X101501572Y-95096342D01*
X101465280Y-95110529D01*
X101440971Y-95148093D01*
X101426337Y-95215898D01*
X101419069Y-95320809D01*
X101416859Y-95469690D01*
X101416820Y-95501138D01*
X101416820Y-95849641D01*
X101352427Y-95849641D01*
X101288034Y-95849641D01*
X101280786Y-95494230D01*
X101276989Y-95348539D01*
X101271760Y-95246401D01*
X101263923Y-95179265D01*
X101252303Y-95138582D01*
X101235724Y-95115803D01*
X101227948Y-95110107D01*
X101171856Y-95095330D01*
X101136769Y-95110107D01*
X101118015Y-95128357D01*
X101104664Y-95161290D01*
X101095540Y-95217454D01*
X101089467Y-95305399D01*
X101085268Y-95433676D01*
X101083931Y-95494230D01*
X101076683Y-95849641D01*
X101012290Y-95849641D01*
X100947897Y-95849641D01*
X100947897Y-95419795D01*
X100948209Y-95261089D01*
X100949726Y-95147110D01*
X100953321Y-95070486D01*
X100959864Y-95023842D01*
X100970227Y-94999804D01*
X100985282Y-94990998D01*
X100998705Y-94989949D01*
X101052563Y-95009502D01*
X101072977Y-95031877D01*
X101093697Y-95060502D01*
X101108490Y-95042094D01*
X101112531Y-95031877D01*
X101149592Y-94999029D01*
X101214040Y-94986953D01*
X101285924Y-94994651D01*
G37*
G36*
X94555896Y-91080085D02*
G01*
X94562435Y-91143068D01*
X94565297Y-91232163D01*
X94565333Y-91243924D01*
X94565333Y-91431644D01*
X94649999Y-91289514D01*
X94745258Y-91165206D01*
X94851813Y-91089537D01*
X94965950Y-91063334D01*
X95083955Y-91087426D01*
X95202117Y-91162638D01*
X95205681Y-91165741D01*
X95316336Y-91294081D01*
X95389007Y-91453344D01*
X95420532Y-91599303D01*
X95429913Y-91762550D01*
X95420006Y-91946549D01*
X95392788Y-92124487D01*
X95376981Y-92189836D01*
X95330808Y-92308391D01*
X95262170Y-92426851D01*
X95182557Y-92528088D01*
X95106435Y-92593189D01*
X94987492Y-92637933D01*
X94853345Y-92644952D01*
X94724143Y-92614796D01*
X94660147Y-92580990D01*
X94565333Y-92516647D01*
X94565333Y-92777211D01*
X94570526Y-92948364D01*
X94587409Y-93074099D01*
X94617935Y-93160185D01*
X94664059Y-93212389D01*
X94720487Y-93235164D01*
X94785776Y-93252506D01*
X94801446Y-93267775D01*
X94769958Y-93280388D01*
X94693774Y-93289761D01*
X94575355Y-93295312D01*
X94461127Y-93296615D01*
X94316289Y-93294682D01*
X94208051Y-93289159D01*
X94141787Y-93280459D01*
X94122461Y-93270564D01*
X94142443Y-93245457D01*
X94149696Y-93244513D01*
X94185059Y-93227569D01*
X94235129Y-93186209D01*
X94240876Y-93180569D01*
X94304820Y-93116625D01*
X94304820Y-92244583D01*
X94304562Y-92004588D01*
X94303631Y-91811416D01*
X94301790Y-91659788D01*
X94298802Y-91544427D01*
X94298477Y-91538154D01*
X94559791Y-91538154D01*
X94572337Y-91915897D01*
X94579117Y-92058716D01*
X94589059Y-92189802D01*
X94600976Y-92296959D01*
X94613680Y-92367991D01*
X94617589Y-92380760D01*
X94660104Y-92450210D01*
X94724337Y-92510540D01*
X94794127Y-92549665D01*
X94851809Y-92555937D01*
X94907840Y-92540267D01*
X94952197Y-92527586D01*
X95019639Y-92481114D01*
X95071934Y-92385464D01*
X95108833Y-92241388D01*
X95130089Y-92049634D01*
X95133577Y-91977499D01*
X95131351Y-91749561D01*
X95107317Y-91564246D01*
X95061990Y-91422765D01*
X94995887Y-91326328D01*
X94909522Y-91276148D01*
X94831992Y-91269577D01*
X94771855Y-91280323D01*
X94725315Y-91308257D01*
X94677075Y-91364830D01*
X94647228Y-91407897D01*
X94559791Y-91538154D01*
X94298477Y-91538154D01*
X94294431Y-91460053D01*
X94288440Y-91401389D01*
X94280593Y-91363157D01*
X94270652Y-91340078D01*
X94263882Y-91331604D01*
X94208513Y-91297953D01*
X94172703Y-91290666D01*
X94128551Y-91283273D01*
X94132710Y-91260865D01*
X94185554Y-91223102D01*
X94287457Y-91169642D01*
X94325515Y-91151493D01*
X94419443Y-91108356D01*
X94495024Y-91075396D01*
X94540230Y-91057792D01*
X94546951Y-91056205D01*
X94555896Y-91080085D01*
G37*
G36*
X96582694Y-91096266D02*
G01*
X96701054Y-91179690D01*
X96717805Y-91195873D01*
X96808945Y-91310403D01*
X96869006Y-91444644D01*
X96900388Y-91607013D01*
X96905489Y-91805924D01*
X96903712Y-91848020D01*
X96876638Y-92083248D01*
X96822142Y-92279595D01*
X96741356Y-92435309D01*
X96635413Y-92548639D01*
X96505446Y-92617835D01*
X96391291Y-92639829D01*
X96296450Y-92641946D01*
X96228162Y-92628136D01*
X96161894Y-92592706D01*
X96147948Y-92583362D01*
X96050256Y-92516647D01*
X96050256Y-92816636D01*
X96050916Y-92946767D01*
X96054175Y-93035707D01*
X96061948Y-93094362D01*
X96076151Y-93133638D01*
X96098702Y-93164442D01*
X96114200Y-93180569D01*
X96172931Y-93224581D01*
X96228488Y-93244422D01*
X96231431Y-93244513D01*
X96274402Y-93255205D01*
X96284717Y-93270564D01*
X96259545Y-93281567D01*
X96187439Y-93289828D01*
X96073514Y-93294968D01*
X95933025Y-93296615D01*
X95784487Y-93294751D01*
X95672965Y-93289409D01*
X95603575Y-93280971D01*
X95581333Y-93270564D01*
X95602514Y-93247644D01*
X95621594Y-93244513D01*
X95666365Y-93227211D01*
X95721163Y-93185104D01*
X95725799Y-93180569D01*
X95789743Y-93116625D01*
X95789743Y-92246760D01*
X95789580Y-92009922D01*
X95788903Y-91819739D01*
X95787428Y-91670767D01*
X95784869Y-91557560D01*
X95782616Y-91509973D01*
X96045034Y-91509973D01*
X96054158Y-91914833D01*
X96058532Y-92074103D01*
X96064174Y-92190782D01*
X96072286Y-92274382D01*
X96084070Y-92334415D01*
X96100726Y-92380392D01*
X96116810Y-92410813D01*
X96193773Y-92503898D01*
X96283440Y-92548947D01*
X96379651Y-92544776D01*
X96476250Y-92490200D01*
X96485859Y-92481776D01*
X96535589Y-92422393D01*
X96570932Y-92343224D01*
X96593708Y-92236086D01*
X96605738Y-92092797D01*
X96608883Y-91928923D01*
X96604618Y-91738684D01*
X96590460Y-91591390D01*
X96564565Y-91478509D01*
X96525089Y-91391509D01*
X96479928Y-91332018D01*
X96419664Y-91282196D01*
X96351678Y-91268011D01*
X96318186Y-91269567D01*
X96253035Y-91282805D01*
X96199443Y-91317438D01*
X96140073Y-91385123D01*
X96133418Y-91393807D01*
X96045034Y-91509973D01*
X95782616Y-91509973D01*
X95780944Y-91474670D01*
X95775367Y-91416654D01*
X95767855Y-91378063D01*
X95758123Y-91353454D01*
X95745888Y-91337379D01*
X95742102Y-91333781D01*
X95687813Y-91299833D01*
X95650922Y-91290666D01*
X95613443Y-91280646D01*
X95607384Y-91270328D01*
X95629342Y-91248453D01*
X95686276Y-91213666D01*
X95764777Y-91172382D01*
X95851436Y-91131014D01*
X95932841Y-91095977D01*
X95995585Y-91073684D01*
X96025778Y-91070203D01*
X96038758Y-91102390D01*
X96047633Y-91170616D01*
X96050256Y-91243046D01*
X96050256Y-91400760D01*
X96134922Y-91274072D01*
X96237259Y-91153667D01*
X96347919Y-91083640D01*
X96464023Y-91064378D01*
X96582694Y-91096266D01*
G37*
G36*
X98120041Y-91110175D02*
G01*
X98185173Y-91115088D01*
X98212369Y-91122016D01*
X98212512Y-91122583D01*
X98194929Y-91147712D01*
X98152094Y-91189792D01*
X98147086Y-91194224D01*
X98126782Y-91216995D01*
X98106105Y-91252607D01*
X98083352Y-91306417D01*
X98056820Y-91383782D01*
X98024809Y-91490059D01*
X97985615Y-91630605D01*
X97937536Y-91810777D01*
X97878869Y-92035933D01*
X97875587Y-92048622D01*
X97823208Y-92249277D01*
X97773035Y-92437859D01*
X97727020Y-92607298D01*
X97687119Y-92750525D01*
X97655284Y-92860473D01*
X97633470Y-92930072D01*
X97627592Y-92945989D01*
X97554543Y-93083078D01*
X97466318Y-93189263D01*
X97369574Y-93261000D01*
X97270969Y-93294747D01*
X97177159Y-93286959D01*
X97094802Y-93234092D01*
X97091952Y-93231109D01*
X97051045Y-93176461D01*
X97046317Y-93126494D01*
X97054847Y-93097038D01*
X97093803Y-93024949D01*
X97151162Y-92991620D01*
X97236795Y-92993277D01*
X97293063Y-93005984D01*
X97368831Y-93024239D01*
X97413928Y-93024392D01*
X97447738Y-93002809D01*
X97476047Y-92971685D01*
X97516624Y-92907573D01*
X97556733Y-92817614D01*
X97575791Y-92761137D01*
X97617326Y-92618262D01*
X97416331Y-92013079D01*
X97342526Y-91792553D01*
X97281946Y-91616245D01*
X97232258Y-91478647D01*
X97191128Y-91374250D01*
X97156225Y-91297548D01*
X97125214Y-91243032D01*
X97095762Y-91205194D01*
X97065538Y-91178527D01*
X97061663Y-91175756D01*
X97024425Y-91141844D01*
X97018781Y-91121047D01*
X97049119Y-91115893D01*
X97120514Y-91112876D01*
X97221952Y-91112249D01*
X97329825Y-91113935D01*
X97456281Y-91117463D01*
X97537073Y-91121407D01*
X97578632Y-91127139D01*
X97587389Y-91136031D01*
X97569773Y-91149455D01*
X97548523Y-91160608D01*
X97491804Y-91201917D01*
X97461485Y-91247917D01*
X97461077Y-91249786D01*
X97465641Y-91286153D01*
X97483107Y-91359248D01*
X97510549Y-91459672D01*
X97545040Y-91578031D01*
X97583654Y-91704926D01*
X97623463Y-91830961D01*
X97661541Y-91946739D01*
X97694961Y-92042864D01*
X97720796Y-92109939D01*
X97736119Y-92138567D01*
X97737934Y-92138646D01*
X97747450Y-92111112D01*
X97767222Y-92041364D01*
X97794999Y-91937768D01*
X97828531Y-91808689D01*
X97859583Y-91686356D01*
X97902972Y-91508195D01*
X97931735Y-91374133D01*
X97946160Y-91278346D01*
X97946534Y-91215011D01*
X97933146Y-91178303D01*
X97906282Y-91162399D01*
X97885577Y-91160410D01*
X97851747Y-91145925D01*
X97847794Y-91134359D01*
X97871889Y-91120995D01*
X97936470Y-91111761D01*
X98029976Y-91108308D01*
X98030153Y-91108308D01*
X98120041Y-91110175D01*
G37*
G36*
X93492241Y-91083650D02*
G01*
X93607086Y-91124839D01*
X93715677Y-91203470D01*
X93768942Y-91254996D01*
X93862877Y-91376302D01*
X93924498Y-91517475D01*
X93956340Y-91687089D01*
X93960938Y-91893714D01*
X93960591Y-91902872D01*
X93953154Y-92034788D01*
X93941045Y-92130828D01*
X93920995Y-92207201D01*
X93889737Y-92280114D01*
X93881066Y-92297232D01*
X93776807Y-92451645D01*
X93647170Y-92566293D01*
X93498438Y-92637961D01*
X93336895Y-92663429D01*
X93197640Y-92647190D01*
X93096744Y-92613549D01*
X93012850Y-92560118D01*
X92927026Y-92474368D01*
X92914251Y-92459622D01*
X92815500Y-92306918D01*
X92752217Y-92128568D01*
X92724060Y-91935564D01*
X92728427Y-91806059D01*
X93028706Y-91806059D01*
X93036407Y-91975742D01*
X93058053Y-92139022D01*
X93093004Y-92285872D01*
X93140618Y-92406267D01*
X93200255Y-92490177D01*
X93230021Y-92512887D01*
X93313456Y-92539145D01*
X93410175Y-92538702D01*
X93497619Y-92513758D01*
X93541583Y-92482513D01*
X93595112Y-92403821D01*
X93632183Y-92299336D01*
X93654510Y-92161327D01*
X93663807Y-91982062D01*
X93664298Y-91928923D01*
X93657524Y-91712178D01*
X93635077Y-91539259D01*
X93595544Y-91403876D01*
X93537513Y-91299744D01*
X93517307Y-91274816D01*
X93457511Y-91216842D01*
X93398263Y-91191472D01*
X93327514Y-91186461D01*
X93245435Y-91194001D01*
X93188361Y-91224141D01*
X93150175Y-91263855D01*
X93095685Y-91358873D01*
X93057704Y-91487598D01*
X93035591Y-91640002D01*
X93028706Y-91806059D01*
X92728427Y-91806059D01*
X92730691Y-91738898D01*
X92771769Y-91549563D01*
X92846955Y-91378551D01*
X92951911Y-91240813D01*
X93068363Y-91144784D01*
X93190330Y-91091327D01*
X93336510Y-91072605D01*
X93353948Y-91072336D01*
X93492241Y-91083650D01*
G37*
G36*
X102407029Y-91092453D02*
G01*
X102489981Y-91113681D01*
X102562074Y-91120022D01*
X102582052Y-91117512D01*
X102609925Y-91112576D01*
X102627297Y-91121028D01*
X102636651Y-91152194D01*
X102640467Y-91215401D01*
X102641226Y-91319976D01*
X102641230Y-91339945D01*
X102639203Y-91443874D01*
X102633771Y-91524673D01*
X102625902Y-91570788D01*
X102621293Y-91577231D01*
X102602361Y-91554807D01*
X102574595Y-91497018D01*
X102553400Y-91442205D01*
X102498956Y-91326429D01*
X102429951Y-91234583D01*
X102355197Y-91176331D01*
X102296454Y-91160410D01*
X102214146Y-91183956D01*
X102152286Y-91246370D01*
X102121699Y-91335313D01*
X102120204Y-91361334D01*
X102123481Y-91403415D01*
X102137356Y-91443267D01*
X102167900Y-91489000D01*
X102221185Y-91548728D01*
X102303279Y-91630561D01*
X102368860Y-91693619D01*
X102493945Y-91814899D01*
X102585332Y-91909510D01*
X102648227Y-91985439D01*
X102687837Y-92050673D01*
X102709367Y-92113200D01*
X102718024Y-92181008D01*
X102719212Y-92231173D01*
X102697440Y-92382428D01*
X102636206Y-92505383D01*
X102542216Y-92595132D01*
X102422174Y-92646765D01*
X102282782Y-92655376D01*
X102172307Y-92631557D01*
X102088940Y-92610876D01*
X102016776Y-92604295D01*
X101996461Y-92606559D01*
X101969334Y-92610837D01*
X101952211Y-92602149D01*
X101942791Y-92571300D01*
X101938774Y-92509098D01*
X101937859Y-92406349D01*
X101937845Y-92372291D01*
X101941082Y-92249971D01*
X101950013Y-92167504D01*
X101963468Y-92127776D01*
X101980275Y-92133671D01*
X101999265Y-92188076D01*
X102004083Y-92208974D01*
X102046415Y-92337063D01*
X102108554Y-92440224D01*
X102183460Y-92514910D01*
X102264093Y-92557571D01*
X102343412Y-92564662D01*
X102414377Y-92532635D01*
X102469949Y-92457941D01*
X102475091Y-92446323D01*
X102499240Y-92370645D01*
X102500673Y-92301704D01*
X102475416Y-92231200D01*
X102419499Y-92150831D01*
X102328948Y-92052295D01*
X102249155Y-91974111D01*
X102126692Y-91852375D01*
X102039985Y-91753228D01*
X101983480Y-91667511D01*
X101951621Y-91586066D01*
X101938852Y-91499733D01*
X101937845Y-91460863D01*
X101948057Y-91346372D01*
X101984880Y-91253629D01*
X102057597Y-91159862D01*
X102062822Y-91154222D01*
X102157836Y-91086165D01*
X102272304Y-91065727D01*
X102407029Y-91092453D01*
G37*
G36*
X91647589Y-90613333D02*
G01*
X91645580Y-90716541D01*
X91640200Y-90796509D01*
X91632416Y-90841630D01*
X91628051Y-90847505D01*
X91608886Y-90825078D01*
X91579843Y-90767487D01*
X91556410Y-90710736D01*
X91520970Y-90630999D01*
X91478934Y-90572158D01*
X91422260Y-90531125D01*
X91342907Y-90504811D01*
X91232834Y-90490129D01*
X91083999Y-90483990D01*
X90963743Y-90483117D01*
X90605538Y-90483077D01*
X90605538Y-90925949D01*
X90605538Y-91368820D01*
X90868054Y-91368820D01*
X90987952Y-91368139D01*
X91068112Y-91364242D01*
X91120898Y-91354349D01*
X91158673Y-91335681D01*
X91193799Y-91305458D01*
X91206721Y-91292670D01*
X91269297Y-91203689D01*
X91282871Y-91136363D01*
X91290243Y-91080628D01*
X91308067Y-91056248D01*
X91308922Y-91056205D01*
X91319663Y-91081455D01*
X91327798Y-91154100D01*
X91333006Y-91269482D01*
X91334966Y-91422944D01*
X91334974Y-91433949D01*
X91332946Y-91586113D01*
X91327293Y-91701985D01*
X91318659Y-91778653D01*
X91307687Y-91813203D01*
X91295022Y-91802724D01*
X91281308Y-91744302D01*
X91275274Y-91703903D01*
X91260842Y-91627679D01*
X91235737Y-91574513D01*
X91191327Y-91539897D01*
X91118980Y-91519320D01*
X91010064Y-91508275D01*
X90891237Y-91503285D01*
X90605538Y-91494467D01*
X90605538Y-91962809D01*
X90606460Y-92149413D01*
X90610750Y-92290661D01*
X90620689Y-92393285D01*
X90638561Y-92464020D01*
X90666647Y-92509600D01*
X90707231Y-92536759D01*
X90762595Y-92552230D01*
X90807701Y-92559225D01*
X90889529Y-92573228D01*
X90921693Y-92586125D01*
X90906628Y-92597493D01*
X90846768Y-92606908D01*
X90744547Y-92613948D01*
X90602400Y-92618189D01*
X90462256Y-92619282D01*
X90314676Y-92618073D01*
X90187011Y-92614719D01*
X90087597Y-92609627D01*
X90024770Y-92603208D01*
X90006358Y-92596932D01*
X90029285Y-92578467D01*
X90086976Y-92558357D01*
X90116318Y-92551342D01*
X90160269Y-92541490D01*
X90196268Y-92529048D01*
X90225068Y-92509144D01*
X90247425Y-92476902D01*
X90264092Y-92427448D01*
X90275823Y-92355910D01*
X90283373Y-92257412D01*
X90287496Y-92127080D01*
X90288947Y-91960041D01*
X90288478Y-91751419D01*
X90286845Y-91496342D01*
X90286530Y-91451366D01*
X90284681Y-91203987D01*
X90282755Y-91003530D01*
X90280450Y-90844811D01*
X90277465Y-90722651D01*
X90273498Y-90631867D01*
X90268248Y-90567278D01*
X90261413Y-90523704D01*
X90252693Y-90495961D01*
X90241785Y-90478871D01*
X90229328Y-90467930D01*
X90167420Y-90441596D01*
X90092559Y-90430974D01*
X90034300Y-90424081D01*
X90006702Y-90407252D01*
X90006358Y-90404923D01*
X90032132Y-90396895D01*
X90108379Y-90390276D01*
X90233489Y-90385117D01*
X90405848Y-90381469D01*
X90623847Y-90379382D01*
X90826974Y-90378872D01*
X91647589Y-90378872D01*
X91647589Y-90613333D01*
G37*
G36*
X92296617Y-90280517D02*
G01*
X92304566Y-90301107D01*
X92310920Y-90340991D01*
X92315847Y-90404726D01*
X92319519Y-90496867D01*
X92322106Y-90621970D01*
X92323777Y-90784591D01*
X92324702Y-90989286D01*
X92325052Y-91240609D01*
X92325068Y-91297179D01*
X92325850Y-91580859D01*
X92328062Y-91828868D01*
X92331629Y-92038165D01*
X92336474Y-92205712D01*
X92342523Y-92328468D01*
X92349700Y-92403394D01*
X92352888Y-92419356D01*
X92386014Y-92496355D01*
X92439184Y-92538620D01*
X92456948Y-92545648D01*
X92515984Y-92571246D01*
X92528207Y-92591041D01*
X92492470Y-92605356D01*
X92407626Y-92614512D01*
X92272529Y-92618831D01*
X92194666Y-92619282D01*
X92053765Y-92617398D01*
X91946098Y-92612069D01*
X91878074Y-92603779D01*
X91855999Y-92593727D01*
X91878118Y-92569097D01*
X91921735Y-92551673D01*
X91957730Y-92541510D01*
X91987097Y-92527541D01*
X92010511Y-92504786D01*
X92028646Y-92468262D01*
X92042176Y-92412988D01*
X92051775Y-92333980D01*
X92058118Y-92226257D01*
X92061879Y-92084836D01*
X92063731Y-91904737D01*
X92064350Y-91680976D01*
X92064410Y-91497318D01*
X92064268Y-91252101D01*
X92063668Y-91053723D01*
X92062351Y-90896920D01*
X92060055Y-90776430D01*
X92056520Y-90686989D01*
X92051485Y-90623333D01*
X92044691Y-90580200D01*
X92035875Y-90552326D01*
X92024779Y-90534448D01*
X92016322Y-90525787D01*
X91959815Y-90494334D01*
X91918630Y-90489185D01*
X91877006Y-90483634D01*
X91866970Y-90470051D01*
X91888080Y-90449096D01*
X91944565Y-90415602D01*
X92023174Y-90375733D01*
X92110653Y-90335658D01*
X92193750Y-90301541D01*
X92259212Y-90279549D01*
X92286903Y-90274666D01*
X92296617Y-90280517D01*
G37*
G36*
X99461329Y-90382607D02*
G01*
X99545018Y-90383629D01*
X100153333Y-90391897D01*
X100322666Y-90472589D01*
X100519114Y-90593205D01*
X100677885Y-90748663D01*
X100797724Y-90936550D01*
X100877376Y-91154452D01*
X100915589Y-91399956D01*
X100915540Y-91613657D01*
X100876723Y-91847500D01*
X100793213Y-92059089D01*
X100668871Y-92243693D01*
X100507557Y-92396577D01*
X100313132Y-92513009D01*
X100128321Y-92578850D01*
X100060273Y-92590536D01*
X99957875Y-92600543D01*
X99829929Y-92608742D01*
X99685236Y-92615004D01*
X99532600Y-92619203D01*
X99380821Y-92621209D01*
X99238703Y-92620895D01*
X99115047Y-92618132D01*
X99018655Y-92612792D01*
X98958330Y-92604746D01*
X98941948Y-92596130D01*
X98964810Y-92577045D01*
X99021544Y-92558608D01*
X99039640Y-92554849D01*
X99087167Y-92546376D01*
X99125985Y-92537033D01*
X99156973Y-92521885D01*
X99181011Y-92495999D01*
X99198978Y-92454440D01*
X99211754Y-92392274D01*
X99220217Y-92304567D01*
X99225248Y-92186385D01*
X99227725Y-92032793D01*
X99228527Y-91838858D01*
X99228535Y-91599645D01*
X99228512Y-91495039D01*
X99228412Y-91245843D01*
X99228001Y-91072512D01*
X99540429Y-91072512D01*
X99540855Y-91290321D01*
X99541127Y-91496088D01*
X99541127Y-92458632D01*
X99612769Y-92486373D01*
X99692852Y-92502549D01*
X99803556Y-92506804D01*
X99925072Y-92500303D01*
X100037588Y-92484210D01*
X100121293Y-92459691D01*
X100128865Y-92456029D01*
X100270116Y-92353995D01*
X100385083Y-92210809D01*
X100471815Y-92031395D01*
X100528359Y-91820675D01*
X100552763Y-91583570D01*
X100549147Y-91396438D01*
X100512218Y-91140160D01*
X100438016Y-90918861D01*
X100335580Y-90743437D01*
X100221612Y-90621216D01*
X100087542Y-90542129D01*
X99925852Y-90502609D01*
X99814666Y-90496409D01*
X99744778Y-90494862D01*
X99687824Y-90493677D01*
X99642494Y-90497647D01*
X99607474Y-90511566D01*
X99581454Y-90540230D01*
X99563122Y-90588432D01*
X99551165Y-90660967D01*
X99544271Y-90762629D01*
X99541130Y-90898212D01*
X99540429Y-91072512D01*
X99228001Y-91072512D01*
X99227932Y-91043520D01*
X99226803Y-90882840D01*
X99224755Y-90758573D01*
X99221520Y-90665490D01*
X99216829Y-90598361D01*
X99210411Y-90551956D01*
X99201997Y-90521046D01*
X99191319Y-90500400D01*
X99178107Y-90484789D01*
X99176410Y-90483077D01*
X99111410Y-90444057D01*
X99047691Y-90430974D01*
X98987120Y-90422380D01*
X98953889Y-90403167D01*
X98967219Y-90393677D01*
X99022261Y-90386955D01*
X99121382Y-90382921D01*
X99266948Y-90381498D01*
X99461329Y-90382607D01*
G37*
G36*
X101561797Y-91081099D02*
G01*
X101565903Y-91151155D01*
X101569552Y-91259432D01*
X101572551Y-91398989D01*
X101574707Y-91562884D01*
X101575724Y-91714000D01*
X101577115Y-91897381D01*
X101579655Y-92066312D01*
X101583127Y-92212905D01*
X101587311Y-92329272D01*
X101591988Y-92407528D01*
X101595807Y-92436923D01*
X101633922Y-92496837D01*
X101696851Y-92541128D01*
X101752465Y-92572027D01*
X101780269Y-92597038D01*
X101780974Y-92599743D01*
X101756755Y-92607010D01*
X101690089Y-92613052D01*
X101590626Y-92617310D01*
X101468016Y-92619228D01*
X101442871Y-92619282D01*
X101298033Y-92617349D01*
X101189795Y-92611826D01*
X101123531Y-92603125D01*
X101104204Y-92593231D01*
X101125386Y-92570311D01*
X101144465Y-92567179D01*
X101189237Y-92549878D01*
X101244035Y-92507770D01*
X101248671Y-92503235D01*
X101270216Y-92480478D01*
X101286281Y-92456332D01*
X101297669Y-92423320D01*
X101305184Y-92373966D01*
X101309632Y-92300793D01*
X101311817Y-92196324D01*
X101312543Y-92053082D01*
X101312615Y-91909035D01*
X101312043Y-91715769D01*
X101309348Y-91568199D01*
X101303062Y-91459921D01*
X101291717Y-91384532D01*
X101273845Y-91335629D01*
X101247977Y-91306809D01*
X101212645Y-91291669D01*
X101169333Y-91284170D01*
X101137615Y-91277714D01*
X101132490Y-91266253D01*
X101159284Y-91245481D01*
X101223326Y-91211095D01*
X101316453Y-91165318D01*
X101414851Y-91118402D01*
X101494966Y-91081596D01*
X101545760Y-91059898D01*
X101557428Y-91056205D01*
X101561797Y-91081099D01*
G37*
G36*
X103310193Y-90277283D02*
G01*
X103319378Y-90288363D01*
X103326774Y-90312455D01*
X103332572Y-90354168D01*
X103336965Y-90418113D01*
X103340146Y-90508901D01*
X103342307Y-90631142D01*
X103343640Y-90789447D01*
X103344338Y-90988426D01*
X103344593Y-91232691D01*
X103344615Y-91366960D01*
X103344637Y-91640899D01*
X103345049Y-91867427D01*
X103346366Y-92051235D01*
X103349102Y-92197013D01*
X103353773Y-92309452D01*
X103360895Y-92393243D01*
X103370981Y-92453078D01*
X103384549Y-92493646D01*
X103402113Y-92519640D01*
X103424188Y-92535749D01*
X103451289Y-92546665D01*
X103475025Y-92554203D01*
X103524511Y-92576114D01*
X103523318Y-92593875D01*
X103472728Y-92607182D01*
X103374023Y-92615730D01*
X103228484Y-92619215D01*
X103201333Y-92619282D01*
X103077975Y-92617566D01*
X102976057Y-92612882D01*
X102905443Y-92605922D01*
X102875994Y-92597381D01*
X102875692Y-92596391D01*
X102897181Y-92571604D01*
X102949173Y-92543079D01*
X102951974Y-92541903D01*
X103012747Y-92506294D01*
X103049089Y-92467102D01*
X103055183Y-92429159D01*
X103060747Y-92346611D01*
X103065718Y-92226953D01*
X103070032Y-92077681D01*
X103073625Y-91906291D01*
X103076433Y-91720279D01*
X103078393Y-91527138D01*
X103079440Y-91334366D01*
X103079512Y-91149457D01*
X103078544Y-90979907D01*
X103076472Y-90833212D01*
X103073234Y-90716867D01*
X103068764Y-90638368D01*
X103064888Y-90610027D01*
X103034354Y-90540725D01*
X102977150Y-90503190D01*
X102959107Y-90497228D01*
X102902657Y-90476125D01*
X102876006Y-90457827D01*
X102875692Y-90456346D01*
X102897906Y-90438008D01*
X102955565Y-90407524D01*
X103035194Y-90370678D01*
X103123319Y-90333257D01*
X103206464Y-90301044D01*
X103271154Y-90279826D01*
X103299025Y-90274602D01*
X103310193Y-90277283D01*
G37*
G36*
X104090867Y-91110784D02*
G01*
X104178363Y-91117714D01*
X104224829Y-91128347D01*
X104230358Y-91134359D01*
X104208266Y-91154643D01*
X104171336Y-91160410D01*
X104108175Y-91172914D01*
X104034721Y-91203285D01*
X104029697Y-91206000D01*
X103980105Y-91244291D01*
X103913700Y-91309914D01*
X103839162Y-91392387D01*
X103765171Y-91481225D01*
X103700407Y-91565947D01*
X103653551Y-91636068D01*
X103633281Y-91681107D01*
X103633068Y-91685020D01*
X103646748Y-91717920D01*
X103683513Y-91787117D01*
X103738886Y-91884695D01*
X103808392Y-92002733D01*
X103874043Y-92111282D01*
X103968969Y-92263798D01*
X104043388Y-92376610D01*
X104101809Y-92455717D01*
X104148742Y-92507116D01*
X104188698Y-92536806D01*
X104197230Y-92541128D01*
X104253081Y-92571944D01*
X104281142Y-92596938D01*
X104281897Y-92599743D01*
X104257838Y-92607593D01*
X104192169Y-92613937D01*
X104095376Y-92618060D01*
X103995897Y-92619282D01*
X103866597Y-92617017D01*
X103771977Y-92610627D01*
X103718693Y-92600716D01*
X103709333Y-92593231D01*
X103730433Y-92570118D01*
X103748410Y-92567179D01*
X103776509Y-92558096D01*
X103783646Y-92527775D01*
X103768127Y-92471607D01*
X103728259Y-92384982D01*
X103662350Y-92263294D01*
X103592102Y-92141627D01*
X103523464Y-92023742D01*
X103465374Y-91922110D01*
X103422471Y-91844998D01*
X103399396Y-91800672D01*
X103396717Y-91793595D01*
X103411679Y-91768246D01*
X103452488Y-91710207D01*
X103513024Y-91627939D01*
X103587172Y-91529897D01*
X103592223Y-91523302D01*
X103686651Y-91398879D01*
X103751556Y-91309012D01*
X103789933Y-91247549D01*
X103804777Y-91208338D01*
X103799086Y-91185226D01*
X103775853Y-91172061D01*
X103764819Y-91168843D01*
X103713517Y-91149725D01*
X103711102Y-91133171D01*
X103754383Y-91120122D01*
X103840167Y-91111521D01*
X103965265Y-91108311D01*
X103969845Y-91108308D01*
X104090867Y-91110784D01*
G37*
G36*
X101487425Y-90282600D02*
G01*
X101553682Y-90322528D01*
X101593624Y-90392178D01*
X101599179Y-90435501D01*
X101577271Y-90511082D01*
X101522022Y-90563197D01*
X101449145Y-90585775D01*
X101374350Y-90572745D01*
X101329678Y-90539641D01*
X101292231Y-90465484D01*
X101294332Y-90384018D01*
X101334204Y-90317781D01*
X101409414Y-90278862D01*
X101487425Y-90282600D01*
G37*
G36*
X91436949Y-97157401D02*
G01*
X91485643Y-97172563D01*
X91503048Y-97213633D01*
X91504307Y-97243384D01*
X91497435Y-97298735D01*
X91465964Y-97322589D01*
X91421867Y-97329536D01*
X91359287Y-97327207D01*
X91328104Y-97298464D01*
X91322022Y-97282696D01*
X91322657Y-97215958D01*
X91363526Y-97170022D01*
X91433484Y-97157037D01*
X91436949Y-97157401D01*
G37*
G36*
X92470898Y-97171829D02*
G01*
X92494861Y-97202390D01*
X92502419Y-97249897D01*
X92504145Y-97305891D01*
X92484955Y-97329422D01*
X92430545Y-97334521D01*
X92416102Y-97334564D01*
X92353935Y-97331272D01*
X92329531Y-97312043D01*
X92328585Y-97262844D01*
X92329785Y-97249897D01*
X92341533Y-97191223D01*
X92371938Y-97168457D01*
X92416102Y-97165231D01*
X92470898Y-97171829D01*
G37*
%TO.C,U1*%
D13*
X125515000Y-51334000D02*
X139485000Y-51334000D01*
X123610000Y-49429000D02*
X123610000Y-32284000D01*
X141390000Y-49429000D02*
X141390000Y-32284000D01*
X128005000Y-30379000D02*
X128008728Y-29368728D01*
D14*
X139485000Y-30379000D02*
X125515000Y-30379000D01*
D13*
X139485000Y-30379000D02*
X125515000Y-30379000D01*
X137004000Y-29369000D02*
X137004000Y-30379000D01*
X128508728Y-28869000D02*
X136504000Y-28869000D01*
X125515000Y-51334000D02*
G75*
G02*
X123610000Y-49429000I1J1905001D01*
G01*
X141390000Y-49429000D02*
G75*
G02*
X139485000Y-51334000I-1905001J1D01*
G01*
X123610000Y-32284000D02*
G75*
G02*
X125515000Y-30379000I1905000J0D01*
G01*
X139485000Y-30379000D02*
G75*
G02*
X141390000Y-32284000I0J-1905000D01*
G01*
X128008728Y-29368728D02*
G75*
G02*
X128508728Y-28869028I499972J-272D01*
G01*
X136504000Y-28869000D02*
G75*
G02*
X137004000Y-29369000I0J-500000D01*
G01*
D15*
X124945000Y-31500000D02*
G75*
G02*
X124441000Y-31500000I-252000J0D01*
G01*
X124441000Y-31500000D02*
G75*
G02*
X124945000Y-31500000I252000J0D01*
G01*
X123802000Y-30620000D02*
G75*
G02*
X123298000Y-30620000I-252000J0D01*
G01*
X123298000Y-30620000D02*
G75*
G02*
X123802000Y-30620000I252000J0D01*
G01*
%TO.C,J1*%
D16*
X88284000Y-33595000D02*
X115716000Y-33595000D01*
X88284000Y-38802000D02*
X115716000Y-38802000D01*
X88284000Y-55693000D02*
X115716000Y-55693000D01*
X88284000Y-60773000D02*
X88411000Y-33595000D01*
X96860000Y-36322000D02*
X96860000Y-34992000D01*
X98190000Y-36322000D02*
X96860000Y-36322000D01*
X99460000Y-33662000D02*
X107140000Y-33662000D01*
X99460000Y-36322000D02*
X99460000Y-33662000D01*
X99460000Y-36322000D02*
X107140000Y-36322000D01*
X107140000Y-36322000D02*
X107140000Y-33662000D01*
X115716000Y-60773000D02*
X88284000Y-60773000D01*
X115716000Y-60773000D02*
X115716000Y-33595000D01*
%TO.C,SW2*%
X152555000Y-81365000D02*
X138585000Y-81365000D01*
X152555000Y-67395000D02*
X152555000Y-81365000D01*
X138585000Y-81365000D02*
X138585000Y-67395000D01*
X138585000Y-67395000D02*
X152555000Y-67395000D01*
%TO.C,R1*%
X142890000Y-86580000D02*
X146730000Y-86580000D01*
X146730000Y-88420000D01*
X142890000Y-88420000D01*
X142890000Y-86580000D01*
X147680000Y-87500000D02*
X146730000Y-87500000D01*
X141940000Y-87500000D02*
X142890000Y-87500000D01*
%TO.C,SW1*%
X106485000Y-81485000D02*
X92515000Y-81485000D01*
X106485000Y-67515000D02*
X106485000Y-81485000D01*
X92515000Y-81485000D02*
X92515000Y-67515000D01*
X92515000Y-67515000D02*
X106485000Y-67515000D01*
%TO.C,J2*%
X115880000Y-67880000D02*
X115880000Y-85770000D01*
X113120000Y-85770000D02*
X115880000Y-85770000D01*
X113120000Y-67880000D02*
X115880000Y-67880000D01*
X113120000Y-67880000D02*
X113120000Y-85770000D01*
X113120000Y-66610000D02*
X113120000Y-65230000D01*
X113120000Y-65230000D02*
X114500000Y-65230000D01*
%TO.C,U2*%
X128727500Y-93022500D02*
X128727500Y-98782500D01*
X116467500Y-93022500D02*
X128727500Y-93022500D01*
X116467500Y-98772500D02*
X116467500Y-93032500D01*
X128727500Y-98782500D02*
X116477500Y-98782500D01*
X116187500Y-99062500D02*
X116187500Y-97452500D01*
X116187500Y-99062500D02*
X118187500Y-99062500D01*
%TD*%
M02*
